<?xml version="1.0" encoding="utf-8"?>
<svg width="512px" height="512px" viewBox="0 0 512 512" version="1.1" xmlns:xlink="http://www.w3.org/1999/xlink" xmlns="http://www.w3.org/2000/svg">
  <desc>Created with Lunacy</desc>
  <defs>
    <path d="M0 0L512 0L512 512L0 512L0 0Z" id="path_1" />
    <clipPath id="mask_1">
      <use xlink:href="#path_1" />
    </clipPath>
  </defs>
  <g id="tiktok">
    <path d="M0 0L512 0L512 512L0 512L0 0Z" id="Background" fill="none" stroke="none" />
    <g clip-path="url(#mask_1)">
      <path d="M471.231 117.133C412.439 106.174 368.639 63.1941 363.095 11.0235L363.095 0L264.282 0L264.282 341.752C264.156 372.774 241.363 400.277 207.611 410.135C173.859 419.992 136.651 410.012 115.101 385.321L115.043 385.296L115.101 385.321C93.1974 360.195 92.5007 325.598 113.379 299.818C134.257 274.038 171.896 263.019 206.399 272.587L206.399 185.099C129.533 175.839 54.4127 210.179 19.4618 270.554C-15.4891 330.929 -2.54135 403.988 51.6822 452.361C103.274 498.365 181.689 512.571 250.045 488.297C318.401 464.023 363.091 406.102 363.095 341.777L363.095 167.151C403.029 192.031 450.91 205.372 500 205.296L500 119.733C490.332 119.744 480.69 118.872 471.231 117.133L471.231 117.133Z" transform="translate(6.3828125 5.9999695)" id="Shape" fill="#FFFFFF" stroke="none" />
    </g>
  </g>
</svg>