<?xml version="1.0" encoding="utf-8"?>
<svg width="24px" height="24px" viewBox="0 0 24 24" version="1.1" xmlns:xlink="http://www.w3.org/1999/xlink" xmlns="http://www.w3.org/2000/svg">
  <desc>Created with Lunacy</desc>
  <defs>
    <path d="M0 0L24 0L24 24L0 24L0 0Z" id="path_1" />
    <clipPath id="mask_1">
      <use xlink:href="#path_1" />
    </clipPath>
  </defs>
  <g id="yelp-svgrepo-com">
    <path d="M0 0L24 0L24 24L0 24L0 0Z" id="Background" fill="none" stroke="none" />
    <g clip-path="url(#mask_1)">
      <path d="M2.24699 2.73225L6.825 10.6628L6.82575 10.6613L6.828 10.6658C7.002 10.9635 7.3245 11.163 7.69425 11.163C8.2485 11.163 8.69775 10.7138 8.69775 10.1595L8.69775 1.00275C8.69775 0.44925 8.2485 0 7.695 0C7.66725 0 7.64025 0.000749946 7.617 0.00299996L7.56675 0.00599992C5.79825 0.15075 4.122 0.62325 2.6835 1.32675L2.6775 1.329C2.34374 1.49175 2.11349 1.83525 2.11349 2.232C2.11349 2.4165 2.16299 2.589 2.24699 2.73225ZM11.3482 13.1453L16.0298 11.802L16.0372 11.802L16.044 11.8005C16.4595 11.6768 16.7632 11.292 16.7632 10.836C16.7632 10.6913 16.7325 10.5533 16.68 10.4348L16.6582 10.38C16.152 9.23176 15.402 8.21551 14.4645 7.38751L14.4652 7.38826C14.2882 7.23226 14.0557 7.13776 13.8015 7.13776C13.4557 7.13776 13.1512 7.31176 12.9682 7.58026L10.2457 11.6175L10.248 11.6145C10.1362 11.7758 10.071 11.9715 10.071 12.183C10.071 12.7358 10.5195 13.1843 11.0723 13.1843C11.1705 13.1843 11.2657 13.17 11.3482 13.1453ZM6.02175 14.571L1.296 15.75C1.22325 15.7688 1.14 15.7793 1.0545 15.7793C0.53925 15.7793 0.11475 15.3915 0.0554999 14.892L0.05475 14.8875C0.02025 14.5958 0 14.2583 0 13.9163C0 12.9233 0.16725 11.9685 0.47625 11.0805L0.45825 11.1413C0.5955 10.7408 0.968999 10.458 1.4085 10.458C1.56661 10.458 1.71672 10.4944 1.8495 10.56L6.22425 12.696C6.56175 12.8618 6.78975 13.2038 6.78975 13.5983C6.78975 14.0655 6.4695 14.4585 6.03675 14.5688L6.03 14.5703L6.02175 14.571ZM11.3205 14.7562L15.9525 16.2615C16.3582 16.3965 16.6462 16.773 16.6462 17.217C16.6462 17.3737 16.6102 17.5222 16.5457 17.655L16.548 17.649C15.9795 18.8257 15.1987 19.8157 14.247 20.6077L14.2327 20.619C14.0602 20.7615 13.8375 20.8485 13.5937 20.8485C13.236 20.8485 12.9217 20.6617 12.7432 20.3797L12.741 20.3752L10.1542 16.2427C10.0582 16.092 10.002 15.9082 10.002 15.711C10.002 15.1575 10.4505 14.709 11.004 14.709C11.1142 14.709 11.2207 14.727 11.3197 14.76L11.313 14.7577L11.3205 14.7562ZM7.599 15.6218C7.3035 15.6218 7.03725 15.75 6.85275 15.9548L6.85126 15.9495L3.5925 19.5713L3.59326 19.5705C3.43201 19.7483 3.33376 19.9845 3.33376 20.244C3.33376 20.5853 3.50401 20.8868 3.76726 21.0705L3.73801 21.0518C4.75726 21.7568 5.93326 22.251 7.25551 22.4783L7.24951 22.4775C7.30426 22.4873 7.36126 22.4918 7.41901 22.4918C7.96201 22.4918 8.40376 22.0613 8.42401 21.522L8.60176 16.6598L8.60176 16.6613C8.6025 16.6493 8.6025 16.6373 8.6025 16.6253C8.6025 16.071 8.15325 15.6218 7.599 15.6218Z" transform="translate(3.619995 0.7545166)" id="Shape" fill="#fff" fill-rule="evenodd" stroke="none" />
    </g>
  </g>
</svg>