<svg role="img" viewBox="0 0 24 24" xmlns="http://www.w3.org/2000/svg" id="Yelp--Streamline-Simple-Icons" height="24" width="24">
  <desc>
    Yelp Streamline Icon: https://streamlinehq.com
  </desc>
  <title>Yelp</title>
  <path d="m7.6885 15.1415 -3.6715 0.8483c-0.3769 0.0871 -0.755 0.183 -1.1452 0.155 -0.2611 -0.0188 -0.5122 -0.0414 -0.7606 -0.213a1.179 1.179 0 0 1 -0.331 -0.3594c-0.3486 -0.5519 -0.3656 -1.3661 -0.3697 -2.0004a6.2874 6.2874 0 0 1 0.3314 -2.0642 1.857 1.857 0 0 1 0.1073 -0.2474 2.3426 2.3426 0 0 1 0.1255 -0.2165 2.4572 2.4572 0 0 1 0.1563 -0.1975 1.1736 1.1736 0 0 1 0.399 -0.2831 1.082 1.082 0 0 1 0.4592 -0.0837c0.2355 0.0016 0.5139 0.052 0.91 0.1734 0.0555 0.0191 0.1237 0.0382 0.1856 0.0572 0.3277 0.1013 0.7048 0.2404 1.1499 0.3987 0.6863 0.2404 1.3663 0.487 2.0463 0.7397l1.2117 0.4423c0.2217 0.0807 0.4363 0.18 0.6412 0.297 0.174 0.0984 0.3273 0.2298 0.4512 0.387a1.217 1.217 0 0 1 0.192 0.4309 1.2205 1.2205 0 0 1 -0.872 1.4522c-0.0468 0.0151 -0.0852 0.0239 -0.1085 0.0293l-1.105 0.2553 -0.0031 -0.001zM18.8208 7.565a1.8506 1.8506 0 0 0 -0.2042 -0.1754 2.4082 2.4082 0 0 0 -0.2077 -0.1394 2.3607 2.3607 0 0 0 -0.2269 -0.109 1.1705 1.1705 0 0 0 -0.482 -0.0796 1.0862 1.0862 0 0 0 -0.4498 0.1263c-0.2107 0.1048 -0.4388 0.2732 -0.742 0.5551 -0.042 0.0417 -0.0947 0.0886 -0.142 0.133 -0.2502 0.2351 -0.5286 0.5252 -0.8599 0.863a114.6363 114.6363 0 0 0 -1.5166 1.5629l-0.8962 0.9293a4.1897 4.1897 0 0 0 -0.4466 0.5483 1.541 1.541 0 0 0 -0.2364 0.5459 1.2199 1.2199 0 0 0 0.0107 0.4518l0.0046 0.02a1.218 1.218 0 0 0 1.4184 0.923 1.162 1.162 0 0 0 0.1105 -0.0213l4.7781 -1.104c0.3766 -0.087 0.7587 -0.1667 1.097 -0.3631 0.2269 -0.1316 0.4428 -0.262 0.5909 -0.5252a1.1793 1.1793 0 0 0 0.1405 -0.4683c0.0733 -0.6512 -0.2668 -1.3908 -0.5403 -1.963a6.2792 6.2792 0 0 0 -1.2001 -1.7103zM8.9703 0.0754a8.6724 8.6724 0 0 0 -0.83 0.1564c-0.2754 0.066 -0.548 0.1383 -0.8146 0.2236 -0.868 0.2844 -2.0884 0.8063 -2.295 1.8065 -0.1165 0.5655 0.1595 1.1439 0.3737 1.66 0.2595 0.6254 0.614 1.1889 0.9373 1.7777 0.8543 1.5545 1.7245 3.0993 2.5922 4.6457 0.259 0.4617 0.5416 1.0464 1.043 1.2856a1.058 1.058 0 0 0 0.1013 0.0383c0.2248 0.0851 0.4699 0.1016 0.7041 0.0471a4.3015 4.3015 0 0 0 0.0418 -0.0097 1.2136 1.2136 0 0 0 0.5658 -0.3397 1.1033 1.1033 0 0 0 0.079 -0.0822c0.3463 -0.435 0.3454 -1.0833 0.3764 -1.6134 0.1042 -1.771 0.2139 -3.5423 0.3009 -5.3142 0.0332 -0.6712 0.1055 -1.3333 0.0655 -2.0096 -0.0328 -0.5579 -0.0368 -1.1984 -0.3891 -1.6563 -0.6218 -0.8073 -1.9476 -0.741 -2.8523 -0.6158zm2.084 15.9505a1.1053 1.1053 0 0 0 -1.2306 -0.4145 1.1398 1.1398 0 0 0 -0.1526 0.0633 1.4806 1.4806 0 0 0 -0.2171 0.1354c-0.1992 0.1475 -0.3668 0.3392 -0.5196 0.5315 -0.0386 0.049 -0.074 0.1143 -0.12 0.1562l-0.7686 1.0573a113.9168 113.9168 0 0 0 -1.2913 1.789c-0.278 0.3895 -0.5184 0.7184 -0.7083 1.0094 -0.036 0.0547 -0.0734 0.116 -0.1075 0.1647 -0.2277 0.3522 -0.3566 0.6092 -0.4228 0.8381a1.0945 1.0945 0 0 0 -0.046 0.4721c0.0211 0.1655 0.0768 0.3246 0.1635 0.467 0.046 0.0715 0.0957 0.1406 0.1487 0.207a2.334 2.334 0 0 0 0.1754 0.1825 1.843 1.843 0 0 0 0.2108 0.1732c0.5304 0.369 1.1112 0.6342 1.722 0.8391a6.0958 6.0958 0 0 0 1.5716 0.3004c0.091 0.0046 0.1821 0.0025 0.2728 -0.006a2.3878 2.3878 0 0 0 0.2506 -0.0351 2.3862 2.3862 0 0 0 0.2447 -0.071 1.1927 1.1927 0 0 0 0.4175 -0.2658c0.1127 -0.113 0.1994 -0.249 0.2541 -0.3989 0.0889 -0.2214 0.1473 -0.5026 0.1857 -0.92 0.0034 -0.0593 0.0118 -0.1305 0.0177 -0.1958 0.0304 -0.3463 0.0443 -0.7531 0.0666 -1.2315 0.0375 -0.7357 0.067 -1.4681 0.0903 -2.2026 0 0 0.0495 -1.3053 0.0494 -1.306 0.0113 -0.3008 0.002 -0.6342 -0.0814 -0.9336a1.396 1.396 0 0 0 -0.1756 -0.4054zm8.6754 2.0439c-0.1605 -0.176 -0.3878 -0.3514 -0.7462 -0.5682 -0.0518 -0.0288 -0.1124 -0.0674 -0.1684 -0.1009 -0.2985 -0.1795 -0.658 -0.3684 -1.078 -0.5965a120.7615 120.7615 0 0 0 -1.9427 -1.042l-1.1515 -0.6107c-0.0597 -0.0175 -0.1203 -0.0607 -0.1766 -0.0878 -0.2212 -0.1058 -0.4558 -0.2045 -0.6992 -0.2498a1.4915 1.4915 0 0 0 -0.2545 -0.0265 1.1527 1.1527 0 0 0 -0.1648 0.01 1.1077 1.1077 0 0 0 -0.9227 0.9133 1.4186 1.4186 0 0 0 0.0159 0.439c0.0563 0.3065 0.1932 0.6096 0.3346 0.875l0.615 1.1526c0.3422 0.65 0.6884 1.2963 1.0435 1.9406 0.229 0.4202 0.4196 0.7799 0.5982 1.078 0.0338 0.056 0.0721 0.1163 0.1011 0.1682 0.2173 0.3584 0.392 0.584 0.569 0.7458 0.1146 0.1107 0.252 0.195 0.4026 0.247 0.1583 0.0525 0.326 0.071 0.4919 0.0546a2.368 2.368 0 0 0 0.251 -0.0435c0.0817 -0.022 0.1622 -0.048 0.241 -0.0784a1.863 1.863 0 0 0 0.2475 -0.1143 6.1018 6.1018 0 0 0 1.2818 -0.9597c0.4596 -0.4522 0.8659 -0.9454 1.182 -1.51 0.044 -0.08 0.0819 -0.163 0.1138 -0.2483a2.49 2.49 0 0 0 0.0773 -0.2411c0.0186 -0.083 0.033 -0.1669 0.0429 -0.2513a1.188 1.188 0 0 0 -0.0565 -0.491 1.0933 1.0933 0 0 0 -0.248 -0.4041zm2.86 3.742a0.8523 0.8523 0 0 1 -0.111 0.4236c-0.074 0.132 -0.178 0.2377 -0.3115 0.3172a0.8428 0.8428 0 0 1 -0.4385 0.119 0.847 0.847 0 0 1 -0.4373 -0.1179 0.8526 0.8526 0 0 1 -0.3125 -0.3171 0.8548 0.8548 0 0 1 -0.111 -0.4248c0 -0.1526 0.038 -0.2958 0.1143 -0.4294a0.8405 0.8405 0 0 1 0.315 -0.3159 0.849 0.849 0 0 1 0.4315 -0.1156 0.8514 0.8514 0 0 1 0.4294 0.1144 0.84 0.84 0 0 1 0.316 0.3148 0.8494 0.8494 0 0 1 0.1156 0.4317zm-0.1202 0c0 -0.1328 -0.0332 -0.256 -0.0996 -0.3698s-0.1564 -0.2038 -0.2702 -0.2702a0.7125 0.7125 0 0 0 -0.371 -0.1007 0.7204 0.7204 0 0 0 -0.3698 0.0996 0.7487 0.7487 0 0 0 -0.2713 0.2702 0.7181 0.7181 0 0 0 -0.0996 0.3709c0 0.132 0.0332 0.2557 0.0996 0.371a0.7355 0.7355 0 0 0 0.2713 0.2713 0.7354 0.7354 0 0 0 0.3698 0.0985 0.7205 0.7205 0 0 0 0.3698 -0.0996 0.7423 0.7423 0 0 0 0.2702 -0.2691 0.7186 0.7186 0 0 0 0.1008 -0.3721zm-0.577 0.0584 0.2724 0.4522h-0.1922l-0.237 -0.4052h-0.1546v0.4052h-0.1695v-1.02h0.2988c0.1268 0 0.2195 0.0247 0.2783 0.0744 0.0595 0.0496 0.0892 0.1252 0.0892 0.2267a0.2785 0.2785 0 0 1 -0.0492 0.1625c-0.032 0.0466 -0.0775 0.0813 -0.1362 0.1042zm-0.0412 -0.1408a0.1532 0.1532 0 0 0 0.056 -0.1214c0 -0.0573 -0.0164 -0.0981 -0.0491 -0.1225 -0.0329 -0.0251 -0.0847 -0.0377 -0.1557 -0.0377h-0.1214v0.3285h0.1237c0.061 0 0.1098 -0.0157 0.1465 -0.047z" fill="#fff" stroke-width="1"></path>
</svg>