<?xml version="1.0" encoding="utf-8"?>
<svg width="1114px" height="955px" viewBox="0 0 1114 955" version="1.1" xmlns:xlink="http://www.w3.org/1999/xlink" xmlns="http://www.w3.org/2000/svg">
  <desc>Created with Lunacy</desc>
  <g id="mcg" transform="matrix(0.8660254 -0.5 0.5 0.8660254 4.098076 488.0896)">
    <path d="M1.52588e-05 267C1.52588e-05 119.54 119.54 0 267 0C414.46 0 534 119.54 534 267L427.2 267C427.2 178.524 355.476 106.8 267 106.8C178.524 106.8 106.8 178.524 106.8 267C106.8 355.476 178.524 427.2 267 427.2C323.416 427.2 373.021 398.038 401.563 353.966L519.517 353.966C483.444 458.729 384.012 534 267 534C119.54 534 1.52588e-05 414.46 1.52588e-05 267Z" transform="translate(0.00011444092 3.0517578E-05)" id="C" fill="#FFFFFF" fill-rule="evenodd" stroke="#000000" stroke-width="6" />
    <path d="M267 -3.05176e-05C119.54 -3.05176e-05 3.05176e-05 119.54 3.05176e-05 267C3.05176e-05 414.46 119.54 534 267 534C358.002 534 438.37 488.474 486.572 418.954L540.783 418.954L540.783 320.4L414.994 320.4L414.994 328.442C390.894 386.427 333.708 427.2 267 427.2C178.524 427.2 106.8 355.476 106.8 267C106.8 178.524 178.524 106.8 267 106.8C335.946 106.8 394.72 150.355 417.307 211.451L528.214 211.451C502.651 90.6518 395.412 -3.05176e-05 267 -3.05176e-05Z" transform="translate(427.20007 0.0008544922)" id="G" fill="#FFFFFF" fill-rule="evenodd" stroke="#000000" stroke-width="6" />
    <g id="M">
      <path d="M267 0C119.54 0 0 119.54 0 267L106.8 267C106.8 178.524 178.524 106.8 267 106.8C355.43 106.8 427.126 178.45 427.2 266.863L427.2 267L534 267C534 266.926 534 266.852 534 266.777C534.12 178.404 605.798 106.8 694.2 106.8C764.27 106.8 823.832 151.786 845.582 214.452L956.03 214.452C931.622 92.1563 823.673 0.000411987 694.2 0.000411987C606.859 0.000411987 529.313 41.9376 480.6 106.774C431.887 41.9374 354.341 0 267 0ZM694.683 534L693.717 534C693.878 534 694.039 534 694.2 534C694.361 534 694.522 534 694.683 534Z" id="Group-Difference" fill="#FFFFFF" fill-rule="evenodd" stroke="#000000" stroke-width="6" />
    </g>
  </g>
</svg>