<?xml version="1.0" encoding="utf-8"?>
<svg width="367px" height="258px" viewBox="0 0 367 258" version="1.1" xmlns:xlink="http://www.w3.org/1999/xlink" xmlns="http://www.w3.org/2000/svg">
  <desc>Created with Lunacy</desc>
  <g id="Group">
    <path d="M8.38 25.12L8.38 2.62L0 2.62L0 0L19.73 0L19.73 2.62L11.3 2.62L11.3 25.12L8.38 25.12Z" transform="translate(0 192.19263)" id="Shape" fill="#fff" stroke="none" />
    <path d="M2.82996 15.3619L10.0099 15.3619L17.29 25.1219L20.77 25.1219L13.0599 14.8619C14.9203 14.573 16.6477 13.7216 18.0099 12.4219C19.2797 11.1072 19.9524 9.32784 19.8699 7.50192C19.9008 6.10733 19.5143 4.73532 18.7599 3.56192C17.9787 2.40051 16.8776 1.49046 15.5899 0.941925C14.078 0.292404 12.4452 -0.0280304 10.8 0.00192261L0 0.00192261L0 25.1219L2.82996 25.1219L2.82996 15.3619ZM10.58 2.62183C12.2642 2.52312 13.9329 2.99135 15.3199 3.95181L15.32 3.95183C16.4355 4.83102 17.0606 6.19275 17 7.6118C17.0569 9.09702 16.3895 10.5175 15.21 11.4218C13.8552 12.3998 12.209 12.8897 10.54 12.8118L2.82996 12.8118L2.82996 2.62181L10.58 2.62183Z" transform="translate(26.900024 192.19067)" id="Shape" fill="#fff" fill-rule="evenodd" stroke="none" />
    <path d="M19.5201 18.67L22.5201 25.31L25.53 25.29L14.09 0L11.4301 0L0 25.31L2.90002 25.31L5.90002 18.67L19.5201 18.67ZM18.4301 16.1301L7.01007 16.1301L12.73 3.32007L18.4301 16.1301Z" transform="translate(52.569946 192.00244)" id="Shape" fill="#fff" fill-rule="evenodd" stroke="none" />
    <path d="M21.23 0L21.23 25.12L19 25.12L2.78003 4.53L2.78003 25.12L0 25.12L0 0L2.65002 0L18.48 20.13L18.48 0L21.23 0Z" transform="translate(85 192.19263)" id="Shape" fill="#fff" stroke="none" />
    <path d="M4.4599 8.73207C4.97296 9.41888 5.66479 9.9516 6.4599 10.272C7.80603 10.8446 9.21118 11.2672 10.6498 11.5321C12.9025 11.895 15.0374 12.786 16.8798 14.1321C18.1897 15.2677 18.9081 16.9402 18.8299 18.6721C18.8544 20.0036 18.4743 21.3112 17.7398 22.4221C16.9852 23.5342 15.9264 24.4055 14.6899 24.9321C13.2935 25.5396 11.7827 25.8398 10.2599 25.8121C8.38953 25.8305 6.53284 25.4911 4.78992 24.8121C3.02576 24.1085 1.40308 23.0922 0 21.812L1.74994 19.7321C2.92303 20.8467 4.27521 21.756 5.74994 22.4221C7.20203 23.018 8.76062 23.3107 10.33 23.2821C11.7598 23.339 13.1677 22.9167 14.33 22.0821C15.9271 20.849 16.3558 18.6195 15.33 16.8821C14.8123 16.207 14.121 15.6851 13.33 15.3721C12.046 14.8229 10.7042 14.4203 9.32996 14.1721C7.01569 13.7984 4.81494 12.9098 2.88989 11.5721C1.52515 10.4128 0.784485 8.6796 0.889954 6.89206C0.873718 5.62531 1.24347 4.38362 1.94995 3.33208C2.68341 2.25816 3.70142 1.40979 4.89001 0.882065C6.22388 0.277359 7.6756 -0.0232239 9.13995 0.0020752C10.7646 -0.0258179 12.3819 0.227936 13.92 0.752075C15.3699 1.30858 16.7206 2.09535 17.9199 3.08208L16.4599 5.25208C15.4134 4.37906 14.2311 3.6832 12.9599 3.19208C11.7603 2.74519 10.49 2.51822 9.2099 2.52208C7.82343 2.45262 6.45569 2.8661 5.3399 3.69206C4.40942 4.37288 3.86261 5.45917 3.86993 6.61208C3.85016 7.36183 4.05566 8.1003 4.4599 8.73207L4.4599 8.73207Z" transform="translate(113.5401 191.86035)" id="Shape" fill="#fff" stroke="none" />
    <path d="M13.9 15.3117C15.3339 14.7255 16.5744 13.7484 17.48 12.4917L17.52 12.5217C18.7872 10.6185 19.1711 8.26086 18.5734 6.05388C17.9757 3.84691 16.4545 2.00533 14.4 1.00168C12.8242 0.313995 11.1191 -0.0270386 9.40002 0.00167847L0 0.00167847L0 25.1217L2.80005 25.1217L2.80005 16.2617L8.90002 16.2617C10.6137 16.2859 12.3146 15.9628 13.9 15.3117ZM9.19 2.62173C10.9462 2.52798 12.6828 3.02817 14.1201 4.04173L14.12 4.04173C15.3581 5.03409 16.0339 6.56839 15.9301 8.15173C15.9713 9.70735 15.2741 11.1908 14.0501 12.1517C12.6141 13.2316 10.8445 13.7731 9.05011 13.6817L2.84009 13.6817L2.84009 2.62173L9.19 2.62173Z" transform="translate(140.09998 192.19092)" id="Shape" fill="#fff" fill-rule="evenodd" stroke="none" />
    <path d="M16.0744 25.5591C19.4276 24.6555 22.28 22.4477 23.9954 19.4281C25.0745 17.4506 25.632 15.2308 25.6154 12.9781C25.6307 10.7236 25.0769 8.50172 24.0054 6.51811C22.9536 4.55951 21.3918 2.92172 19.4854 1.77809C16.4866 0.0243683 12.9106 -0.456131 9.55518 0.443771C6.19977 1.34367 3.34418 3.54912 1.62537 6.5681C-0.541809 10.6092 -0.541809 15.467 1.62537 19.5081C2.6745 21.466 4.23712 23.1012 6.14539 24.2381C9.14575 25.987 12.7211 26.4626 16.0744 25.5591ZM17.8553 4.01808C19.3607 4.93896 20.5904 6.24809 21.4153 7.80806L21.4153 7.80809C23.1089 11.075 23.1089 14.9612 21.4153 18.2281C20.598 19.77 19.3826 21.0649 17.8953 21.9781C14.7762 23.8303 10.8944 23.8303 7.77539 21.9781C6.27124 21.0632 5.04419 19.7566 4.22534 18.1981C2.51807 14.931 2.51807 11.0352 4.22534 7.76808C5.04462 6.23077 6.25549 4.93715 7.73535 4.01808C10.8544 2.16585 14.7363 2.16585 17.8553 4.01808Z" transform="translate(164.85461 191.7644)" id="Shape" fill="#fff" fill-rule="evenodd" stroke="none" />
    <path d="M2.83002 15.3619L10.01 15.3619L17.29 25.1219L20.77 25.1219L13.0599 14.8619C14.9203 14.573 16.6477 13.7216 18.0099 12.4219C19.2797 11.1072 19.9524 9.32784 19.8699 7.50192C19.9008 6.10733 19.5143 4.73532 18.7599 3.56192C17.9787 2.40051 16.8776 1.49046 15.5899 0.941925C14.078 0.292404 12.4452 -0.0280304 10.8 0.00192261L0 0.00192261L0 25.1219L2.83002 25.1219L2.83002 15.3619ZM10.58 2.62183C12.2643 2.52312 13.933 2.99135 15.32 3.95181C16.4355 4.83101 17.0606 6.19273 17 7.6118C17.0569 9.09702 16.3895 10.5175 15.21 11.4218C13.8552 12.3998 12.209 12.8897 10.54 12.8118L2.83002 12.8118L2.83002 2.62181L10.58 2.62183Z" transform="translate(198.38 192.19067)" id="Shape" fill="#fff" fill-rule="evenodd" stroke="none" />
    <path d="M8.42999 25.12L8.42999 2.62L0 2.62L0 0L19.73 0L19.73 2.62L11.3 2.62L11.3 25.12L8.42999 25.12Z" transform="translate(224.18 192.19263)" id="Shape" fill="#fff" stroke="none" />
    <path d="M19.58 18.67L22.52 25.31L25.5699 25.29L14.1199 0L11.4699 0L0 25.31L2.90997 25.31L5.90997 18.67L19.58 18.67ZM18.4599 16.1301L7.01996 16.1301L12.7599 3.32007L18.4599 16.1301Z" transform="translate(245.72003 192.00244)" id="Shape" fill="#fff" fill-rule="evenodd" stroke="none" />
    <path d="M8.43005 25.12L8.43005 2.62L0 2.62L0 0L19.73 0L19.73 2.62L11.2999 2.62L11.2999 25.12L8.43005 25.12Z" transform="translate(273.12 192.19263)" id="Shape" fill="#fff" stroke="none" />
    <path d="M2.82996 25.12L0 25.12L0 0L2.82996 0L2.82996 25.12Z" transform="translate(300.32007 192.19263)" id="Shape" fill="#fff" stroke="none" />
    <path d="M19.4401 24.2337C21.3594 23.0791 22.9314 21.4276 23.9901 19.4537L23.99 19.4437C26.1626 15.4075 26.1626 10.5499 23.99 6.5137C22.9445 4.55066 21.3812 2.91138 19.4701 1.77371C16.4722 0.0231934 12.8986 -0.455505 9.54565 0.444244C6.19263 1.34399 3.33887 3.54747 1.62 6.56371C-0.540039 10.6066 -0.540039 15.4608 1.62 19.5037C2.672 21.4595 4.23389 23.094 6.14001 24.2337C10.2611 26.5871 15.319 26.5871 19.4401 24.2337ZM17.8601 4.04364C19.3624 4.96513 20.5887 6.27434 21.4102 7.83362L21.4502 7.81366C23.1438 11.0805 23.1438 14.9668 21.4502 18.2336C20.6356 19.7776 19.4196 21.0732 17.9302 21.9836C14.8147 23.8363 10.9355 23.8363 7.82019 21.9836C6.31299 21.0694 5.08252 19.7629 4.26013 18.2036C2.56641 14.9333 2.56641 11.044 4.26013 7.77364C5.0802 6.23367 6.29504 4.93945 7.78015 4.02364C9.28442 3.10381 11.017 2.6256 12.7802 2.64363C14.5713 2.62411 16.3318 3.1093 17.8601 4.04364Z" transform="translate(311.28992 191.73877)" id="Shape" fill="#fff" fill-rule="evenodd" stroke="none" />
    <path d="M21.24 0L21.24 25.12L18.98 25.12L2.76001 4.53L2.76001 25.12L0 25.12L0 0L2.66003 0L18.48 20.13L18.48 0L21.24 0Z" transform="translate(344.81006 192.19263)" id="Shape" fill="#fff" stroke="none" />
    <path d="M2.83002 2.62L2.83002 11.62L16.43 11.62L16.43 14.21L2.83002 14.21L2.83002 25.15L0 25.15L0 0L18.05 0L18.05 2.62L2.83002 2.62Z" transform="translate(66.41998 231.45264)" id="Shape" fill="#fff" stroke="none" />
    <path d="M12.7894 25.9696C17.4565 26.0525 21.7803 23.5261 23.9995 19.4196L23.9994 19.4396C26.1594 15.4002 26.1594 10.549 23.9994 6.50958C22.9476 4.55099 21.3858 2.91321 19.4794 1.76956C15.36 -0.589844 10.2988 -0.589844 6.17938 1.76962C4.25824 2.9176 2.68542 4.56644 1.62939 6.53958C-0.543152 10.5793 -0.543152 15.4398 1.62939 19.4796C2.67853 21.4375 4.24115 23.0727 6.14941 24.2096C8.15698 25.3999 10.4558 26.0092 12.7894 25.9696ZM17.8594 4.00958C19.367 4.92776 20.5974 6.23758 21.4194 7.79962L21.4194 7.79965C23.113 11.0665 23.113 14.9528 21.4194 18.2196C20.6049 19.7636 19.3889 21.0591 17.8994 21.9696C16.3947 22.8885 14.6624 23.3666 12.8994 23.3496C11.1082 23.3692 9.34772 22.884 7.81934 21.9496C6.31525 21.0348 5.08813 19.7282 4.26941 18.1696C3.41675 16.5594 2.98016 14.7615 2.99939 12.9396C2.98053 11.1273 3.41724 9.33923 4.26941 7.73962C5.08392 6.19568 6.29999 4.90012 7.78943 3.98962C9.29364 3.06979 11.0263 2.59158 12.7894 2.60962C14.5773 2.59143 16.3342 3.07657 17.8594 4.00958Z" transform="translate(96.870544 231.03296)" id="Shape" fill="#fff" fill-rule="evenodd" stroke="none" />
    <path d="M2.84003 15.3629L10.01 15.3629L17.3 25.1729L20.78 25.1729L13.06 14.9129C14.9383 14.6344 16.6847 13.7822 18.06 12.4729C19.3334 11.1599 20.0098 9.38031 19.93 7.55289C19.9581 6.13275 19.5536 4.73764 18.77 3.55289C17.9838 2.39447 16.8795 1.4881 15.59 0.942902C14.0802 0.286469 12.4459 -0.0342407 10.8 0.00289917L0 0.00289917L0 25.1229L2.84003 25.1229L2.84003 15.3629ZM10.59 2.62289C12.2718 2.51779 13.9395 2.98669 15.32 3.95288L15.3199 3.95288C16.4446 4.82574 17.0749 6.19073 17.01 7.61292C17.0653 9.09497 16.3979 10.5117 15.2201 11.4129C13.868 12.3972 12.2207 12.8911 10.55 12.8129L2.84003 12.8129L2.84003 2.62289L10.59 2.62289Z" transform="translate(137.07 231.4497)" id="Shape" fill="#fff" fill-rule="evenodd" stroke="none" />
    <path d="M2.85999 0L2.85999 22.55L17 22.55L17 25.17L0 25.17L0 0L2.85999 0Z" transform="translate(190.90002 231.45264)" id="Shape" fill="#fff" stroke="none" />
    <path d="M2.83002 2.54999L2.83002 11.12L16.54 11.12L16.54 13.7L2.83002 13.7L2.83002 22.55L18.33 22.55L18.33 25.13L0 25.13L0 0L18.15 0L18.15 2.54999L2.83002 2.54999Z" transform="translate(221.71997 231.45264)" id="Shape" fill="#fff" stroke="none" />
    <path d="M4.37 8.74219C4.8866 9.42545 5.57739 9.95731 6.37 10.2822C7.72083 10.8514 9.12891 11.2738 10.5699 11.5422C12.8202 11.903 14.9523 12.7943 16.7899 14.1422C18.1233 15.2644 18.8618 16.9409 18.7899 18.6822C18.8094 20.0131 18.4298 21.3192 17.7 22.4322C16.9551 23.5337 15.9155 24.4034 14.7 24.9422C13.2985 25.545 11.7854 25.8449 10.26 25.8222C8.38965 25.839 6.53333 25.4996 4.79004 24.8222C3.03088 24.1088 1.40979 23.0935 0 21.8222L1.76001 19.7422C2.93298 20.8568 4.28528 21.7662 5.76001 22.4323C7.20984 23.0234 8.76416 23.3159 10.3298 23.2922C11.7798 23.362 13.2108 22.9391 14.3899 22.0922C15.3796 21.3687 15.9543 20.208 15.9301 18.9822C15.9546 18.2455 15.7596 17.518 15.37 16.8922C14.8702 16.2201 14.1958 15.6978 13.42 15.3822C12.1361 14.833 10.7943 14.4305 9.42004 14.1822C7.10645 13.8062 4.90613 12.9179 2.9801 11.5822C1.61377 10.4198 0.873047 8.68289 0.980103 6.89218C0.963379 5.62848 1.33325 4.38983 2.04016 3.34222C2.77222 2.26465 3.79028 1.41269 4.9801 0.882233C6.31519 0.281281 7.76611 -0.019104 9.2301 0.00222778C10.8524 -0.026825 12.4672 0.230438 14.0001 0.762238C15.4719 1.31143 16.8435 2.09854 18.0603 3.09219L16.4102 5.28223C15.3625 4.4083 14.1807 3.70929 12.9102 3.21222C11.7095 2.77042 10.4395 2.54691 9.16016 2.55222C7.771 2.48541 6.401 2.89853 5.28027 3.72223C4.34717 4.40082 3.79956 5.48853 3.81018 6.64221C3.78174 7.38254 3.97681 8.11426 4.37 8.74219L4.37 8.74219Z" transform="translate(252.72998 231.11035)" id="Shape" fill="#fff" stroke="none" />
    <path d="M4.36011 8.74243C4.87671 9.42569 5.5675 9.95755 6.36011 10.2824C7.71094 10.8516 9.11902 11.274 10.5601 11.5425C12.8127 11.9055 14.9476 12.7964 16.79 14.1425C18.121 15.2665 18.8589 16.9417 18.79 18.6825C18.8146 20.014 18.4346 21.3216 17.7001 22.4325C16.9552 23.5339 15.9157 24.4037 14.7001 24.9424C13.3019 25.5445 11.7922 25.8444 10.27 25.8225C8.39648 25.84 6.53674 25.5006 4.79004 24.8225C3.03088 24.109 1.40979 23.0938 0 21.8225L1.76001 19.7425C2.93298 20.8571 4.28528 21.7664 5.76001 22.4325C7.21021 23.0228 8.7644 23.3153 10.33 23.2925C11.7799 23.3622 13.2109 22.9393 14.39 22.0925C15.3796 21.3689 15.9543 20.2082 15.9301 18.9825C15.9575 18.2467 15.7661 17.5194 15.38 16.8925C14.8629 16.2167 14.1715 15.6947 13.38 15.3825C12.0961 14.8333 10.7543 14.4307 9.38 14.1825C7.06641 13.8065 4.86609 12.9182 2.94006 11.5825C1.57373 10.4201 0.833008 8.68314 0.940063 6.89243C0.92334 5.62872 1.29321 4.39008 2.00012 3.34247C2.73218 2.26489 3.75024 1.41293 4.94006 0.882477C6.27515 0.281525 7.72607 -0.0188599 9.19006 0.00247192C10.8125 -0.0282898 12.4275 0.229034 13.9601 0.762482C15.4319 1.31168 16.8035 2.09879 18.0203 3.09244L16.3701 5.28247C15.3225 4.40854 14.1406 3.70953 12.8701 3.21246C11.6697 2.76984 10.3995 2.5463 9.12012 2.55246C7.73096 2.48566 6.36096 2.89877 5.24023 3.72247C4.30713 4.40106 3.75952 5.48877 3.77014 6.64246C3.75073 7.38593 3.95642 8.11789 4.36023 8.74246L4.36011 8.74243Z" transform="translate(283.91992 231.1101)" id="Shape" fill="#fff" stroke="none" />
    <path d="M68.9603 54.9595C108.15 77.9595 143.07 57.8795 147.34 55.2395C148.788 42.0071 146.647 28.6287 141.14 16.5096C133.02 21.1695 101.58 36.3295 66.8102 15.2695C54.8102 8.01953 36.0703 -7.86047 13.4402 4.65953C3.23523 19.2 -1.40344 36.9241 0.370239 54.5995C29.7603 25.5795 54.1603 46.2695 68.9603 54.9595L68.9603 54.9595Z" transform="translate(109.10974 37.173096)" id="Shape" fill="#7A5C9D" stroke="none" />
    <path d="M53.3699 42.0004C88.1399 63.0604 119.58 47.9004 127.7 43.2404C116.708 19.1398 93.6589 2.76455 67.2833 0.317009C40.9077 -2.13052 15.2391 9.72398 0 31.3904C22.6299 18.8704 41.3799 34.7504 53.3699 42.0004L53.3699 42.0004Z" transform="translate(122.55005 10.442139)" id="Shape" fill="#FFD637" stroke="none" />
    <path d="M68.59 15.2952C53.79 6.60523 29.39 -14.0848 0 14.9352C1.28369 27.8949 5.99506 40.2792 13.65 50.8151C33.5734 57.6303 55.491 55.2837 73.52 44.4052C87.39 36.2652 110.25 16.8952 137.78 44.0152C142.761 35.2655 145.889 25.585 146.97 15.5752C142.7 18.2152 107.78 38.2952 68.59 15.2952L68.59 15.2952Z" transform="translate(109.47998 76.8374)" id="Shape" fill="#222D5E" stroke="none" />
    <path d="M59.87 14.335C41.8409 25.2135 19.9234 27.5601 0 20.745C14.7379 41.1121 38.8181 52.5911 63.9205 51.2159C89.0229 49.8408 111.705 35.8001 124.13 13.945C96.6 -13.175 73.74 6.19501 59.87 14.335L59.87 14.335Z" transform="translate(123.130005 106.90747)" id="Shape" fill="#6494CE" stroke="none" />
    <path d="M84.3414 168.682L84.3425 168.682C130.899 168.627 168.627 130.9 168.682 84.3424C168.682 50.2301 148.134 19.4767 116.618 6.42245C85.1022 -6.63176 48.8261 0.584015 24.7051 24.7051C0.583984 48.8262 -6.63177 85.1023 6.42248 116.618C19.4766 148.133 50.2295 168.682 84.3414 168.682ZM3.07245 84.3425C3.07245 39.4583 39.4583 3.07252 84.3425 3.07251L84.3493 3.07253C129.211 3.13139 165.561 39.488 165.612 84.3424C165.612 129.227 129.227 165.612 84.3425 165.613C39.4583 165.613 3.07251 129.227 3.07245 84.3425Z" transform="translate(98.65753 0)" id="Shape" fill="#fff" fill-rule="evenodd" stroke="none" />
  </g>
</svg>