<?xml version="1.0" encoding="utf-8"?>
<svg width="761px" height="169px" viewBox="0 0 761 169" version="1.1" xmlns:xlink="http://www.w3.org/1999/xlink" xmlns="http://www.w3.org/2000/svg">
  <desc>Created with Lunacy</desc>
  <g id="transportation-for-less">
    <g id="Group">
      <g id="Group" transform="translate(185.23083 30.370026)">
        <path d="M13.1775 39.501L13.1775 4.11993L0 4.11993L0 0L31.0253 0L31.0253 4.11993L17.7692 4.11993L17.7692 39.501L13.1775 39.501L13.1775 39.501Z" transform="translate(0 0.7136841)" id="Shape" fill="#6D6E70" stroke="none" />
        <path d="M15.7405 24.1565L4.4501 24.1565L4.4501 39.504L0 39.504L0 0.00302245L16.9829 0.00302245C19.57 -0.0440785 22.1376 0.459803 24.515 1.48117C26.5399 2.34374 28.2714 3.77479 29.4998 5.6011C30.6861 7.44626 31.2939 9.60374 31.2453 11.7967C31.375 14.668 30.3172 17.466 28.3205 19.5334C26.1784 21.5771 23.4621 22.916 20.5366 23.3703L32.6607 39.504L27.1884 39.504L15.7405 24.1565ZM24.0905 6.21421C21.9094 4.70389 19.2854 3.9676 16.637 4.12282L4.45012 4.12279L4.45012 20.1465L16.5741 20.1465C19.1986 20.269 21.7872 19.4986 23.9177 17.9607C25.7724 16.5387 26.8219 14.305 26.7324 11.9695C26.8277 9.73807 25.8447 7.59676 24.0906 6.21424L24.0905 6.21421Z" transform="translate(42.30017 0.7106018)" id="Shape#1" fill="#6D6E70" fill-rule="evenodd" stroke="none" />
        <path d="M35.4127 39.7998L30.6952 29.3585L9.27775 29.3585L4.56026 39.7998L0 39.7998L17.9738 0L22.1564 0L40.1458 39.7684L35.4127 39.7998ZM11.0233 25.3645L28.9813 25.3645L20.0179 5.22078L11.0233 25.3645Z" transform="translate(82.665955 0.41461182)" id="Shape#2" fill="#6D6E70" fill-rule="evenodd" stroke="none" />
        <path d="M33.384 0L33.384 39.5011L29.8774 39.5011L4.37158 7.1234L4.37158 39.5011L0 39.5011L0 0L4.16714 0L29.0597 31.6543L29.0597 0L33.384 0L33.384 0Z" transform="translate(133.66205 0.7136841)" id="Shape#3" fill="#6D6E70" stroke="none" />
        <path d="M7.01316 13.7311C7.81995 14.8111 8.90785 15.6488 10.1582 16.1527C12.2749 17.0531 14.4845 17.7176 16.7467 18.1342C20.2891 18.7048 23.6462 20.1059 26.5434 22.2226C28.6032 24.0084 29.7329 26.6384 29.6099 29.3618C29.6484 31.4555 29.0507 33.5117 27.8957 35.2586C26.7091 37.0074 25.0442 38.3775 23.0998 39.2056C20.9039 40.1609 18.5282 40.6329 16.1336 40.5894C13.1925 40.6183 10.2728 40.0846 7.53212 39.0169C4.75799 37.9105 2.20633 36.3124 0 34.2992L2.75177 31.0286C4.59645 32.7813 6.72274 34.2112 9.04174 35.2586C11.3251 36.1957 13.776 36.6559 16.2439 36.611C18.4922 36.7004 20.7061 36.0364 22.5338 34.724C25.0453 32.7849 25.7194 29.2791 24.1063 26.547C23.2922 25.4854 22.2052 24.6647 20.9613 24.1725C18.9423 23.3089 16.8323 22.6758 14.6713 22.2855C11.0321 21.6979 7.57146 20.3006 4.54433 18.1971C2.39829 16.3741 1.2336 13.6486 1.39945 10.8377C1.37392 8.84577 1.95535 6.89321 3.06628 5.23967C4.21964 3.55094 5.82046 2.21688 7.68951 1.38704C9.78701 0.436142 12.0698 -0.0365226 14.3725 0.00326006C16.9273 -0.0406017 19.4705 0.358425 21.8891 1.18263C24.1691 2.05773 26.293 3.29492 28.1789 4.84655L25.8831 8.25886C24.2375 6.88604 22.3783 5.79181 20.3794 5.01952C18.493 4.31679 16.4955 3.95988 14.4825 3.96595C12.3023 3.85673 10.1515 4.50692 8.39696 5.80574C6.93378 6.87633 6.07393 8.58451 6.08544 10.3975C6.05435 11.5764 6.3775 12.7377 7.01316 13.7311L7.01316 13.7311L7.01316 13.7311Z" transform="translate(178.54114 0.19119263)" id="Shape#4" fill="#6D6E70" stroke="none" />
        <path d="M27.4872 19.6431C26.0631 21.6193 24.1125 23.1558 21.8577 24.0776C19.3646 25.1014 16.69 25.6095 13.9952 25.5714L4.40306 25.5714L4.40306 39.5037L0 39.5037L0 0.00263253L14.7815 0.00263253C17.4847 -0.0425249 20.166 0.493748 22.6439 1.57513C25.8746 3.15336 28.2667 6.04924 29.2066 9.51968C30.1464 12.9901 29.5428 16.6975 27.5501 19.6903L27.4872 19.6431ZM22.2037 6.35562C19.9436 4.7618 17.2128 3.97525 14.4512 4.12268L4.466 4.12268L4.466 21.5144L14.2312 21.5144C17.0529 21.6581 19.8356 20.8066 22.0937 19.1085C24.0184 17.5975 25.1147 15.2648 25.05 12.8186C25.2132 10.3288 24.1505 7.9161 22.2036 6.35562L22.2037 6.35562Z" transform="translate(220.30634 0.71099854)" id="Shape#5" fill="#6D6E70" fill-rule="evenodd" stroke="none" />
        <path d="M37.7326 30.5506C35.0352 35.2989 30.5498 38.7706 25.2769 40.1916C20.0039 41.6123 14.3817 40.8644 9.66361 38.1143C6.66287 36.3265 4.20566 33.7552 2.55591 30.6764C-0.851969 24.3218 -0.851969 16.6829 2.55591 10.3283C5.25872 5.58098 9.74912 2.11292 15.0255 0.697838C20.3019 -0.717253 25.9251 0.0383296 30.6407 2.79605C33.6385 4.5944 36.0944 7.16981 37.7484 10.2497C39.4333 13.3689 40.3041 16.8628 40.2801 20.408C40.3062 23.9504 39.4295 27.441 37.7326 30.5506ZM33.6755 12.2782C32.3783 9.8251 30.4446 7.7665 28.0774 6.31842C23.1728 3.4058 17.0685 3.4058 12.1638 6.31842C9.83675 7.76365 7.93267 9.79786 6.64436 12.2153C3.95969 17.3528 3.95969 23.4789 6.64436 28.6164C7.93199 31.0672 9.86152 33.1218 12.2268 34.5604C17.1314 37.473 23.2355 37.473 28.1403 34.5604C30.479 33.1244 32.3903 31.0882 33.6755 28.6636C36.3386 23.5264 36.3386 17.4154 33.6755 12.2782Z" transform="translate(259.2329 0.040283203)" id="Shape#6" fill="#6D6E70" fill-rule="evenodd" stroke="none" />
        <path d="M15.7407 24.1565L4.45019 24.1565L4.45019 39.504L0 39.504L0 0.00302245L16.9829 0.00302245C19.57 -0.0440785 22.1376 0.459803 24.515 1.48117C26.5399 2.34374 28.2714 3.77479 29.4998 5.6011C30.6861 7.44626 31.2939 9.60374 31.2453 11.7967C31.375 14.668 30.3172 17.466 28.3205 19.5334C26.1784 21.5771 23.4621 22.916 20.5366 23.3703L32.6607 39.504L27.1884 39.504L15.7407 24.1565ZM24.0906 6.21421C21.9095 4.70389 19.2855 3.9676 16.637 4.12282L4.45017 4.12279L4.45017 20.1465L16.5741 20.1465C19.1986 20.269 21.7872 19.4986 23.9176 17.9607C25.7724 16.5387 26.8219 14.305 26.7324 11.9695C26.8277 9.73804 25.8447 7.59674 24.0906 6.21421Z" transform="translate(311.95142 0.7106018)" id="Shape#7" fill="#6D6E70" fill-rule="evenodd" stroke="none" />
        <path d="M13.2561 39.5011L13.2561 4.11993L0 4.11993L0 0L31.0253 0L31.0253 4.11993L17.7692 4.11993L17.7692 39.5011L13.2561 39.5011L13.2561 39.5011Z" transform="translate(352.52173 0.7136841)" id="Shape#8" fill="#6D6E70" stroke="none" />
        <path d="M35.4125 39.7998L30.7894 29.3585L9.29339 29.3585L4.57591 39.7998L0 39.7998L18.0363 0L22.2034 0L40.2085 39.7684L35.4125 39.7998ZM11.0388 25.3645L29.028 25.3645L20.0648 5.22078L11.0388 25.3645Z" transform="translate(386.39343 0.41461182)" id="Shape#9" fill="#6D6E70" fill-rule="evenodd" stroke="none" />
        <path d="M13.2562 39.5011L13.2562 4.11994L0 4.11994L0 0L31.0253 0L31.0253 4.11994L17.769 4.11994L17.769 39.5011L13.2562 39.5011L13.2562 39.5011Z" transform="translate(429.4796 0.7136841)" id="Shape#10" fill="#6D6E70" stroke="none" />
        <path d="M4.4501 39.5011L0 39.5011L0 0L4.4501 0L4.4501 39.5011L4.4501 39.5011Z" transform="translate(472.25153 0.7136841)" id="Shape#11" fill="#6D6E70" stroke="none" />
        <path d="M37.7244 30.5908C36.0596 33.6948 33.5876 36.2918 30.5695 38.1074C24.0891 41.8081 16.1356 41.8081 9.65518 38.1074C6.65782 36.3152 4.20175 33.7449 2.54749 30.6695C-0.849163 24.312 -0.849163 16.6788 2.54749 10.3214C5.2504 5.57838 9.73792 2.11342 15.0105 0.698574C20.283 -0.716276 25.9025 0.0364748 30.6167 2.78915C33.6219 4.57813 36.0802 7.15589 37.7242 10.2428C41.1406 16.5897 41.1406 24.2282 37.7242 30.5751L37.7244 30.5908ZM33.6675 12.3183C32.3757 9.86636 30.4473 7.80764 28.085 6.3586C25.6817 4.88935 22.9134 4.1264 20.0969 4.15709C17.3242 4.12874 14.5998 4.88072 12.2343 6.32715C9.89898 7.76725 7.98866 9.80241 6.6991 12.224C4.03573 17.3666 4.03573 23.4825 6.6991 28.6251C7.9923 31.077 9.92721 33.1315 12.2973 34.5691C17.1961 37.4824 23.2961 37.4824 28.1952 34.5691C30.5373 33.1375 32.4494 31.1002 33.7304 28.6722C36.3936 23.5352 36.3936 17.424 33.7304 12.2869L33.6675 12.3183Z" transform="translate(489.50153 0)" id="Shape#12" fill="#6D6E70" fill-rule="evenodd" stroke="none" />
        <path d="M33.3997 0L33.3997 39.501L29.8459 39.501L4.34009 7.1234L4.34009 39.501L0 39.501L0 0L4.18287 0L29.0596 31.6543L29.0596 0L33.3997 0L33.3997 0Z" transform="translate(542.21173 0.7136841)" id="Shape#13" fill="#6D6E70" stroke="none" />
        <path d="M4.45019 4.11994L4.45019 18.2724L25.8361 18.2724L25.8361 22.3451L4.45019 22.3451L4.45019 39.5482L0 39.5482L0 0L28.3835 0L28.3835 4.11994L4.45019 4.11994L4.45019 4.11994Z" transform="translate(104.44501 62.44983)" id="Shape#14" fill="#6D6E70" stroke="none" />
        <path d="M37.7391 30.5372C34.2494 36.9946 27.4503 40.9674 20.1113 40.837C16.4417 40.8993 12.8268 39.9412 9.66994 38.0694C6.66921 36.2817 4.212 33.7103 2.56223 30.6315C-0.854078 24.279 -0.854078 16.6359 2.56223 10.2834C4.22283 7.18068 6.69608 4.58789 9.71707 2.78269C16.1948 -0.927549 24.1535 -0.927549 30.6313 2.7826C33.6291 4.58098 36.085 7.15638 37.7389 10.2363C41.1355 16.5882 41.1355 24.2167 37.7389 30.5686L37.7391 30.5372ZM33.6819 12.2649C32.3893 9.80858 30.4545 7.74889 28.0838 6.30506C25.6854 4.83791 22.9227 4.07503 20.1112 4.10363C17.3388 4.07526 14.6142 4.82724 12.2488 6.27367C9.90666 7.70543 7.9944 9.74269 6.71359 12.1705C5.37356 14.6859 4.68683 17.4976 4.71649 20.3475C4.68625 23.2124 5.37278 26.0396 6.71359 28.5716C8.00102 31.0225 9.93066 33.0771 12.2958 34.5156C14.6992 35.985 17.4675 36.748 20.2842 36.7171C23.0565 36.7439 25.7805 35.9921 28.1467 34.5471C30.4889 33.1153 32.4011 31.0782 33.6819 28.6502C36.345 23.5132 36.345 17.402 33.6819 12.2649Z" transform="translate(152.32837 61.789856)" id="Shape#15" fill="#6D6E70" fill-rule="evenodd" stroke="none" />
        <path d="M15.7407 24.1581L4.46593 24.1581L4.46593 39.5056L0 39.5056L0 0.00455089L16.9829 0.00455089C19.5711 -0.0538513 22.141 0.450463 24.5152 1.4827C26.5429 2.34002 28.2794 3.76528 29.5157 5.58689C30.7479 7.4499 31.384 9.64371 31.3398 11.8769C31.4653 14.7505 30.4017 17.5489 28.3993 19.6136C26.2366 21.6724 23.4904 23.0125 20.5368 23.4504L32.6764 39.5842L27.2042 39.5842L15.7407 24.1581ZM24.0906 6.21588C21.9198 4.69655 19.2973 3.95921 16.6527 4.12448L4.46594 4.12448L4.46594 20.1482L16.5898 20.1482C19.217 20.2712 21.8074 19.4945 23.9335 17.9467C25.7856 16.5296 26.8351 14.3018 26.7481 11.9713C26.8502 9.73488 25.8591 7.58844 24.0905 6.21588L24.0906 6.21588Z" transform="translate(215.54181 62.44519)" id="Shape#16" fill="#6D6E70" fill-rule="evenodd" stroke="none" />
        <path d="M4.49732 0L4.49732 35.4597L26.7324 35.4597L26.7324 39.5797L0 39.5797L0 0L4.49732 0L4.49732 0Z" transform="translate(300.1892 62.44983)" id="Shape#17" fill="#6D6E70" stroke="none" />
        <path d="M4.45019 4.00984L4.45019 17.4861L26.0091 17.4861L26.0091 21.5432L4.45019 21.5432L4.45019 35.4597L28.8238 35.4597L28.8238 39.5168L0 39.5168L0 0L28.5408 0L28.5408 4.00984L4.45019 4.00984L4.45019 4.00984Z" transform="translate(348.65332 62.44983)" id="Shape#18" fill="#6D6E70" stroke="none" />
        <path d="M6.8718 13.747C7.68415 14.8214 8.77042 15.6578 10.0168 16.1687C12.141 17.0637 14.3552 17.728 16.6211 18.15C20.1597 18.7174 23.5124 20.1189 26.402 22.2385C28.4988 24.0032 29.6601 26.6394 29.547 29.3776C29.5777 31.4705 28.9808 33.5243 27.8332 35.2745C26.6618 37.0066 25.027 38.3742 23.1157 39.2214C20.9118 40.1693 18.5325 40.6409 16.1338 40.6052C13.1927 40.6317 10.2736 40.098 7.53231 39.0327C4.76604 37.9109 2.21689 36.3144 0 34.3153L2.76761 31.0445C4.61209 32.7972 6.73858 34.2272 9.05758 35.2746C11.3374 36.2041 13.7816 36.6641 16.2436 36.6268C18.5237 36.7366 20.7739 36.0716 22.628 34.7398C24.1843 33.6021 25.088 31.7769 25.05 29.8494C25.0885 28.6909 24.7819 27.5469 24.1692 26.5629C23.3833 25.506 22.3228 24.6847 21.1029 24.1884C19.084 23.3248 16.974 22.6919 14.813 22.3014C11.1749 21.7101 7.71486 20.3133 4.68619 18.2129C2.53764 16.3851 1.37286 13.6538 1.54121 10.8379C1.51491 8.85073 2.09653 6.90296 3.20814 5.2556C4.3593 3.56113 5.96019 2.22142 7.83118 1.38728C9.9306 0.442289 12.2122 -0.0300649 14.5143 0.00347923C17.0653 -0.0422061 19.6046 0.362338 22.0151 1.19859C24.3295 2.06219 26.4863 3.29992 28.3997 4.86243L25.8049 8.30625C24.1574 6.932 22.2991 5.83281 20.3012 5.05117C18.4131 4.35645 16.4161 4.00498 14.4043 4.01333C12.2199 3.90827 10.0655 4.5579 8.30319 5.85316C6.8359 6.92024 5.97479 8.63066 5.99149 10.4448C5.94676 11.609 6.25351 12.7596 6.8718 13.747L6.8718 13.747L6.8718 13.747Z" transform="translate(397.41638 61.91156)" id="Shape#19" fill="#6D6E70" stroke="none" />
        <path d="M6.85625 13.7474C7.6686 14.8218 8.75486 15.6582 10.0012 16.169C12.1254 17.0641 14.3396 17.7283 16.6057 18.1505C20.1479 18.7213 23.505 20.1223 26.4022 22.239C28.4952 24.0065 29.6555 26.6407 29.5472 29.3781C29.5859 31.4719 28.9883 33.5281 27.8333 35.275C26.662 37.0069 25.0274 38.3747 23.1158 39.2218C20.9172 40.1686 18.5432 40.6402 16.1495 40.6057C13.2034 40.6332 10.279 40.0995 7.53231 39.0332C4.76604 37.9113 2.21689 36.3149 0 34.3157L2.76761 31.045C4.6121 32.7977 6.73858 34.2275 9.05758 35.275C11.338 36.2032 13.782 36.6632 16.2439 36.6273C18.5238 36.7369 20.7741 36.0719 22.6282 34.7403C24.1843 33.6025 25.0881 31.7773 25.05 29.8499C25.0931 28.6928 24.7921 27.5491 24.185 26.5633C23.3718 25.5007 22.2846 24.6798 21.04 24.1889C19.0211 23.3253 16.9111 22.6922 14.75 22.3019C11.1119 21.7106 7.6519 20.3138 4.62323 18.2134C2.47468 16.3855 1.3099 13.6542 1.47824 10.8383C1.45195 8.85112 2.03357 6.90336 3.14518 5.256C4.29634 3.56152 5.89723 2.22181 7.76822 1.38768C9.86764 0.442686 12.1492 -0.0296674 14.4513 0.00387678C17.0026 -0.0444958 19.5422 0.360144 21.9522 1.19899C24.2666 2.0626 26.4234 3.30032 28.3368 4.86283L25.7419 8.30664C24.0945 6.93239 22.236 5.8332 20.2382 5.05156C18.3505 4.35555 16.3532 4.00403 14.3413 4.01372C12.1569 3.90868 10.0026 4.55829 8.24023 5.85355C6.77294 6.92063 5.91182 8.63105 5.92852 10.4452C5.898 11.6143 6.22145 12.7653 6.85644 13.7475L6.85625 13.7474L6.85625 13.7474Z" transform="translate(446.4624 61.911224)" id="Shape#20" fill="#6D6E70" stroke="none" />
      </g>
      <path d="M68.9603 54.9595C108.15 77.9595 143.07 57.8795 147.34 55.2395C148.788 42.0071 146.647 28.6287 141.14 16.5096C133.02 21.1695 101.58 36.3295 66.8102 15.2695C54.8102 8.01953 36.0703 -7.86047 13.4402 4.65953C3.23521 19.2 -1.40346 36.9241 0.370224 54.5995C29.7603 25.5795 54.1603 46.2695 68.9603 54.9595L68.9603 54.9595L68.9603 54.9595Z" transform="translate(10.452209 37.173096)" id="Shape#21" fill="#7A5C9D" stroke="none" />
      <path d="M53.3699 42.0004C88.1399 63.0604 119.58 47.9004 127.7 43.2404C116.708 19.1398 93.6589 2.76455 67.2833 0.317008C40.9077 -2.13052 15.2391 9.72398 0 31.3904C22.6299 18.8704 41.3799 34.7504 53.3699 42.0004L53.3699 42.0004L53.3699 42.0004Z" transform="translate(23.892517 10.442139)" id="Shape#22" fill="#FFD637" stroke="none" />
      <path d="M68.59 15.2952C53.79 6.60526 29.39 -14.0848 0 14.9352C1.28369 27.8949 5.99506 40.2792 13.65 50.8151C33.5734 57.6303 55.491 55.2837 73.52 44.4052C87.39 36.2652 110.25 16.8952 137.78 44.0152C142.761 35.2655 145.889 25.585 146.97 15.5752C142.7 18.2152 107.78 38.2952 68.59 15.2952L68.59 15.2952L68.59 15.2952Z" transform="translate(10.822449 76.83737)" id="Shape#23" fill="#222D5E" stroke="none" />
      <path d="M59.87 14.335C41.8409 25.2135 19.9234 27.5601 0 20.745C14.7379 41.1121 38.8181 52.5911 63.9205 51.2159C89.0229 49.8408 111.705 35.8001 124.13 13.945C96.6 -13.175 73.74 6.19501 59.87 14.335L59.87 14.335L59.87 14.335Z" transform="translate(24.472473 106.90747)" id="Shape#24" fill="#6494CE" stroke="none" />
      <path d="M84.3425 168.682L84.3414 168.682C50.2295 168.682 19.4766 148.133 6.42248 116.618C-6.63177 85.1023 0.583987 48.8262 24.7051 24.7051C48.8261 0.584016 85.1022 -6.63176 116.618 6.42245C148.134 19.4767 168.682 50.2301 168.682 84.3424C168.627 130.9 130.899 168.627 84.3425 168.682ZM84.3425 3.07251C39.4583 3.07252 3.07245 39.4583 3.07245 84.3425C3.07251 129.227 39.4583 165.613 84.3425 165.613C129.227 165.612 165.612 129.227 165.612 84.3424C165.561 39.488 129.211 3.13139 84.3493 3.07253L84.3425 3.07251Z" id="Shape#25" fill="#6D6E70" fill-rule="evenodd" stroke="none" />
    </g>
  </g>
</svg>