<?xml version="1.0" encoding="utf-8"?>
<svg width="169px" height="169px" viewBox="0 0 169 169" version="1.1" xmlns:xlink="http://www.w3.org/1999/xlink" xmlns="http://www.w3.org/2000/svg">
  <desc>Created with Lunacy</desc>
  <g id="transportation-for-less">
    <g id="Group">
      <path d="M68.9603 54.9595C108.15 77.9595 143.07 57.8795 147.34 55.2395C148.788 42.0071 146.647 28.6287 141.14 16.5096C133.02 21.1695 101.58 36.3295 66.8102 15.2695C54.8102 8.01953 36.0703 -7.86047 13.4402 4.65953C3.23521 19.2 -1.40346 36.9241 0.370224 54.5995C29.7603 25.5795 54.1603 46.2695 68.9603 54.9595L68.9603 54.9595L68.9603 54.9595Z" transform="translate(10.452209 37.173096)" id="Shape#21" fill="#7A5C9D" stroke="none" />
      <path d="M53.3699 42.0004C88.1399 63.0604 119.58 47.9004 127.7 43.2404C116.708 19.1398 93.6589 2.76455 67.2833 0.317008C40.9077 -2.13052 15.2391 9.72398 0 31.3904C22.6299 18.8704 41.3799 34.7504 53.3699 42.0004L53.3699 42.0004L53.3699 42.0004Z" transform="translate(23.892517 10.442139)" id="Shape#22" fill="#FFD637" stroke="none" />
      <path d="M68.59 15.2952C53.79 6.60526 29.39 -14.0848 0 14.9352C1.28369 27.8949 5.99506 40.2792 13.65 50.8151C33.5734 57.6303 55.491 55.2837 73.52 44.4052C87.39 36.2652 110.25 16.8952 137.78 44.0152C142.761 35.2655 145.889 25.585 146.97 15.5752C142.7 18.2152 107.78 38.2952 68.59 15.2952L68.59 15.2952L68.59 15.2952Z" transform="translate(10.822449 76.83737)" id="Shape#23" fill="#222D5E" stroke="none" />
      <path d="M59.87 14.335C41.8409 25.2135 19.9234 27.5601 0 20.745C14.7379 41.1121 38.8181 52.5911 63.9205 51.2159C89.0229 49.8408 111.705 35.8001 124.13 13.945C96.6 -13.175 73.74 6.19501 59.87 14.335L59.87 14.335L59.87 14.335Z" transform="translate(24.472473 106.90747)" id="Shape#24" fill="#6494CE" stroke="none" />
      <path d="M84.3425 168.682L84.3414 168.682C50.2295 168.682 19.4766 148.133 6.42248 116.618C-6.63177 85.1023 0.583987 48.8262 24.7051 24.7051C48.8261 0.584016 85.1022 -6.63176 116.618 6.42245C148.134 19.4767 168.682 50.2301 168.682 84.3424C168.627 130.9 130.899 168.627 84.3425 168.682ZM84.3425 3.07251C39.4583 3.07252 3.07245 39.4583 3.07245 84.3425C3.07251 129.227 39.4583 165.613 84.3425 165.613C129.227 165.612 165.612 129.227 165.612 84.3424C165.561 39.488 129.211 3.13139 84.3493 3.07253L84.3425 3.07251Z" id="Shape#25" fill="#fff" fill-rule="evenodd" stroke="none" />
    </g>
  </g>
</svg>