<?xml version="1.0" encoding="utf-8"?>
<svg width="24px" height="24px" viewBox="0 0 24 24" version="1.1" xmlns:xlink="http://www.w3.org/1999/xlink" xmlns="http://www.w3.org/2000/svg">
  <desc>Created with Lunacy</desc>
  <defs>
    <path d="M0 0L24 0L24 24L0 24L0 0Z" id="path_1" />
    <clipPath id="mask_1">
      <use xlink:href="#path_1" />
    </clipPath>
  </defs>
  <g id="baby-seat">
    <path d="M0 0L24 0L24 24L0 24L0 0Z" id="Background" fill="none" stroke="none" />
    <g clip-path="url(#mask_1)">
      <g id="Group" transform="translate(1 1.9999695)">
        <path d="M3.06166 5.61255C3.32298 5.56364 3.58182 5.47702 3.83018 5.34743C5.19899 4.63364 5.73887 2.92847 5.03662 1.53806C4.33436 0.14801 2.65572 -0.400826 1.28691 0.312788C0.687158 0.625558 0.246581 1.12909 0 1.71349C1.56121 2.41826 2.72749 3.86588 3.06166 5.61255L3.06166 5.61255Z" transform="translate(7.1147766 0)" id="Shape" fill="#000000" stroke="none" />
        <path d="M3.70706 2.65328L4.49069 2.68197C5.17713 2.7067 5.75344 2.16201 5.77831 1.46446C5.803 0.767454 5.26649 0.18162 4.5804 0.156894L0.311956 0.000779351C0.206076 -0.00319107 0.101439 0.00817905 0 0.0309193C0.188133 0.0377772 0.374313 0.0554647 0.554097 0.0910188C2.67881 0.515144 3.38551 1.58123 3.70706 2.65328L3.70706 2.65328Z" transform="translate(16.220886 8.483032)" id="Shape" fill="#000000" stroke="none" />
        <path d="M0.893412 1.67336C0.893412 2.7483 0.585363 3.77883 0 4.66643C0.0881151 4.83229 0.203057 4.97847 0.346954 5.10986C0.580211 5.29016 0.841715 5.37715 1.1471 5.37715C1.79464 5.37715 2.57809 4.99273 3.40772 4.58539L3.5955 4.49353C4.07569 4.25872 4.55233 4.03565 5.03288 3.86402L4.59888 3.00494L6.58005 2.48696C7.24536 2.31334 7.64579 1.62445 7.47453 0.948558C7.30345 0.273025 6.62553 -0.133775 5.96023 0.0402065L1.58164 1.18498C1.34607 1.22613 1.11299 1.30266 0.887194 1.41185C0.890925 1.49866 0.893412 1.58565 0.893412 1.67336L0.893412 1.67336Z" transform="translate(9.381256 4.968994)" id="Shape" fill="#000000" stroke="none" />
        <path d="M5.8293 18.3885L5.8293 14.7038C2.93748 12.5175 0 8.15693 0 5.09474C0 5.04944 0.00586252 4.99494 0.0170534 4.93466C0.0680396 2.20076 2.264 0 4.96697 0C7.70228 0 9.91938 2.25238 9.91938 5.03103C9.91938 6.13647 9.56763 7.15798 8.97285 7.98818C9.08335 8.26612 9.25265 8.52222 9.50243 8.7471C10.453 9.49132 11.6384 8.90931 12.9454 8.2676C14.1274 7.68724 15.4089 7.05805 16.706 7.31698C18.9979 7.77414 19.4581 9.00248 19.6842 9.99854C19.8324 10.6512 20.2555 13.0528 17.2092 14.6309C18.0534 15.9964 18.2008 18.3885 18.2008 18.3885L5.8293 18.3885ZM4.96768 2.74942C3.72679 2.74942 2.72163 3.77075 2.72163 5.03085C2.72163 6.29078 3.72696 7.31193 4.96768 7.31193C6.20787 7.31193 7.21267 6.2906 7.21267 5.03085C7.21267 3.77057 6.2077 2.74942 4.96768 2.74942Z" transform="translate(0 1.6115417)" id="Shape" fill="#000000" fill-rule="evenodd" stroke="none" />
        <path d="M0 1.15362C0 0.516494 0.508404 0 1.13555 0C1.7627 0 2.2711 0.516494 2.2711 1.15362C2.2711 1.79075 1.7627 2.30724 1.13555 2.30724C0.508404 2.30724 0 1.79075 0 1.15362Z" transform="translate(3.831787 5.488739)" id="Circle" fill="#000000" stroke="none" />
      </g>
    </g>
  </g>
</svg>