<?xml version="1.0" encoding="utf-8"?>
<svg width="24px" height="24px" viewBox="0 0 24 24" version="1.1" xmlns:xlink="http://www.w3.org/1999/xlink" xmlns="http://www.w3.org/2000/svg">
  <desc>Created with Lunacy</desc>
  <defs>
    <path d="M0 0L24 0L24 24L0 24L0 0Z" id="path_1" />
    <clipPath id="mask_1">
      <use xlink:href="#path_1" />
    </clipPath>
  </defs>
  <g id="calendar">
    <path d="M0 0L24 0L24 24L0 24L0 0Z" id="Background" fill="none" stroke="none" />
    <g clip-path="url(#mask_1)">
      <path d="M6.23781 0.814816C6.23781 0.364809 5.86844 0 5.41281 0C4.95718 0 4.58781 0.364809 4.58781 0.814816L4.58781 2.53056C3.00455 2.65577 1.96516 2.96307 1.20154 3.71727C0.437921 4.47146 0.126775 5.49802 0 7.06174L21.8256 7.06174C21.6989 5.49802 21.3877 4.47146 20.6241 3.71727C19.8604 2.96307 18.821 2.65577 17.2378 2.53056L17.2378 0.814816C17.2378 0.364809 16.8684 0 16.4128 0C15.9572 0 15.5878 0.364809 15.5878 0.814816L15.5878 2.45846C14.856 2.44445 14.0357 2.44445 13.1128 2.44445L8.71281 2.44445C7.78988 2.44445 6.96961 2.44445 6.23781 2.45846L6.23781 0.814816L6.23781 0.814816Z" transform="translate(1.0871582 1)" id="Shape" fill="#000000" stroke="none" />
      <path d="M0.0141901 0C0 0.722797 0 1.53294 0 2.44445L0 4.61729C0 8.71441 0 10.7631 1.28873 12.0358C2.57747 13.3087 4.65164 13.3087 8.8 13.3087L13.2 13.3087C17.3483 13.3087 19.4226 13.3087 20.7112 12.0358C22 10.7631 22 8.71441 22 4.61729L22 2.44445C22 1.53294 22 0.722797 21.9858 0L0.0141901 0ZM5.49999 4.6173C6.1075 4.6173 6.59999 4.13091 6.59999 3.53088C6.59999 2.93085 6.1075 2.44446 5.49999 2.44446C4.89249 2.44446 4.39999 2.93085 4.39999 3.53088C4.39999 4.13091 4.89249 4.6173 5.49999 4.6173ZM12.1 3.53088C12.1 4.13091 11.6076 4.6173 11 4.6173C10.3925 4.6173 9.90002 4.13091 9.90002 3.53088C9.90002 2.93085 10.3925 2.44446 11 2.44446C11.6076 2.44446 12.1 2.93085 12.1 3.53088ZM16.5 4.6173C17.1076 4.6173 17.6 4.13091 17.6 3.53088C17.6 2.93085 17.1076 2.44446 16.5 2.44446C15.8925 2.44446 15.4 2.93085 15.4 3.53088C15.4 4.13091 15.8925 4.6173 16.5 4.6173ZM6.59999 7.87655C6.59999 8.47658 6.1075 8.96297 5.49999 8.96297C4.89249 8.96297 4.39999 8.47658 4.39999 7.87655C4.39999 7.27652 4.89249 6.79013 5.49999 6.79013C6.1075 6.79013 6.59999 7.27652 6.59999 7.87655ZM11 8.96298C11.6076 8.96298 12.1 8.47658 12.1 7.87655C12.1 7.27652 11.6076 6.79013 11 6.79013C10.3925 6.79013 9.90002 7.27652 9.90002 7.87655C9.90002 8.47658 10.3925 8.96298 11 8.96298ZM17.6 7.87655C17.6 8.47658 17.1076 8.96297 16.5 8.96297C15.8925 8.96297 15.4 8.47658 15.4 7.87655C15.4 7.27652 15.8925 6.79013 16.5 6.79013C17.1076 6.79013 17.6 7.27652 17.6 7.87655Z" transform="translate(1 9.691345)" id="Shape" fill="#000000" fill-rule="evenodd" stroke="none" />
    </g>
  </g>
</svg>