<?xml version="1.0" encoding="utf-8"?>
<svg width="24px" height="24px" viewBox="0 0 24 24" version="1.1" xmlns:xlink="http://www.w3.org/1999/xlink" xmlns="http://www.w3.org/2000/svg">
  <desc>Created with Lunacy</desc>
  <defs>
    <path d="M0 0L24 0L24 24L0 24L0 0Z" id="path_1" />
    <clipPath id="mask_1">
      <use xlink:href="#path_1" />
    </clipPath>
  </defs>
  <g id="cash-svgrepo-com">
    <path d="M0 0L24 0L24 24L0 24L0 0Z" id="Background" fill="none" stroke="none" />
    <g clip-path="url(#mask_1)">
      <path d="M4.17244 0.842104C3.67175 0.850526 3.67554 0 4.17244 0L20.8621 0C21.4857 0 22 0.570947 22 1.26316L22 12.2105C22 12.7663 21.2414 12.7663 21.2414 12.2105L21.2414 1.26316C21.2414 1.02232 21.0791 0.842104 20.8621 0.842104L4.17244 0.842104ZM2.65518 1.6842C2.15905 1.6842 2.15905 2.52631 2.65518 2.52631L19.3448 2.52631C19.5618 2.52631 19.7242 2.70652 19.7242 2.94736L19.7242 13.8947C19.7242 14.4547 20.4904 14.4505 20.4828 13.8947L20.4828 2.94736C20.4828 2.25515 19.9684 1.6842 19.3448 1.6842L2.65518 1.6842ZM0 4.6316C0 3.93939 0.514345 3.36844 1.13793 3.36844L17.8276 3.36844C18.4512 3.36844 18.9655 3.93939 18.9655 4.6316L18.9655 14.7369C18.9655 15.4291 18.4512 16 17.8276 16L1.13793 16C0.514345 16 0 15.4291 0 14.7369L0 4.6316ZM1.13792 4.21054L17.8276 4.21054C18.0445 4.21054 18.2069 4.39075 18.2069 4.63159L18.2069 14.7368C18.2069 14.9777 18.0445 15.1579 17.8276 15.1579L1.13792 15.1579C0.920951 15.1579 0.758606 14.9777 0.758606 14.7368L0.758606 4.63159C0.758606 4.39075 0.920951 4.21054 1.13792 4.21054ZM1.51721 5.47366C1.51721 5.24124 1.68714 5.05261 1.89652 5.05261L3.41376 5.05261C3.91142 5.05261 3.92356 5.89472 3.41376 5.89472L2.27583 5.89472L2.27583 7.15787C2.27583 7.71029 1.51721 7.72377 1.51721 7.15787L1.51721 5.47366ZM9.48272 5.05261C7.18258 5.05261 5.3103 7.13093 5.3103 9.68419C5.3103 12.2374 7.18258 14.3158 9.48272 14.3158C11.7829 14.3158 13.6551 12.2374 13.6551 9.68419C13.6551 7.13093 11.7829 5.05261 9.48272 5.05261ZM15.5517 5.89472C15.0419 5.89472 15.054 5.05261 15.5517 5.05261L17.0689 5.05261C17.2783 5.05261 17.4482 5.24124 17.4482 5.47366L17.4482 7.15787C17.4482 7.72377 16.6896 7.71029 16.6896 7.15787L16.6896 5.89472L15.5517 5.89472ZM9.48276 5.89474C11.3717 5.89474 12.8966 7.58737 12.8966 9.68421C12.8966 11.7811 11.3717 13.4737 9.48276 13.4737C7.5938 13.4737 6.06897 11.7811 6.06897 9.68421C6.06897 7.58737 7.5938 5.89474 9.48276 5.89474ZM9.10341 7.1579C9.10341 6.92464 9.27258 6.73685 9.48272 6.73685C9.69286 6.73685 9.86203 6.92464 9.86203 7.1579L9.86203 7.57895L10.2413 7.57895C10.4978 7.57474 10.6207 7.78779 10.6207 8C10.6207 8.21221 10.4978 8.42527 10.2413 8.42106L9.48272 8.42106C9.27031 8.42106 9.10341 8.59958 9.10341 8.84211C9.10341 9.08463 9.27031 9.26316 9.48272 9.26316C10.1048 9.26316 10.6207 9.83579 10.6207 10.5263C10.6207 11.0703 10.3005 11.5335 9.86203 11.7103L9.86203 12.2105C9.86203 12.4438 9.69286 12.6316 9.48272 12.6316C9.27258 12.6316 9.10341 12.4438 9.10341 12.2105L9.10341 11.7895L8.7241 11.7895C8.46768 11.7937 8.34479 11.5806 8.34479 11.3684C8.34479 11.1562 8.46768 10.9432 8.7241 10.9474L9.48272 10.9474C9.69513 10.9474 9.86203 10.7688 9.86203 10.5263C9.86203 10.2838 9.69513 10.1053 9.48272 10.1053C8.86065 10.1053 8.34479 9.53263 8.34479 8.84211C8.34479 8.29811 8.66493 7.83495 9.10341 7.65811L9.10341 7.1579ZM1.89652 11.7912C1.70687 11.7895 1.51721 11.9276 1.51721 12.2106L1.51721 13.8948C1.51721 14.1272 1.68714 14.3158 1.89652 14.3158L3.41376 14.3158C3.91142 14.3158 3.92356 13.4737 3.41376 13.4737L2.27583 13.4737L2.27583 12.2106C2.27583 11.9343 2.08618 11.7929 1.89652 11.7912ZM16.6896 12.2106C16.6896 11.9343 16.8793 11.7929 17.0689 11.7912C17.2586 11.7895 17.4482 11.9276 17.4482 12.2106L17.4482 13.8948C17.4482 14.1272 17.2783 14.3158 17.0689 14.3158L15.5517 14.3158C15.054 14.3158 15.0419 13.4737 15.5517 13.4737L16.6896 13.4737L16.6896 12.2106Z" transform="translate(1 4)" id="Shape" fill="#000000" fill-rule="evenodd" stroke="none" />
    </g>
  </g>
</svg>