<?xml version="1.0" encoding="utf-8"?>
<svg width="24px" height="24px" viewBox="0 0 24 24" version="1.1" xmlns:xlink="http://www.w3.org/1999/xlink" xmlns="http://www.w3.org/2000/svg">
  <desc>Created with Lunacy</desc>
  <defs>
    <path d="M0 0L24 0L24 24L0 24L0 0Z" id="path_1" />
    <clipPath id="mask_1">
      <use xlink:href="#path_1" />
    </clipPath>
  </defs>
  <g id="clock">
    <path d="M0 0L24 0L24 24L0 24L0 0Z" id="Background-Copy" fill="none" stroke="none" />
    <g clip-path="url(#mask_1)">
      <path d="M22 11C22 17.0752 17.0752 22 11 22C4.92487 22 0 17.0752 0 11C0 4.92487 4.92487 0 11 0C17.0752 0 22 4.92487 22 11ZM9.62503 12.5695L9.62503 5.125L12.375 5.125L12.375 11.4305L16.0973 15.1527L14.1528 17.0973L9.62503 12.5695Z" transform="translate(0.9168091 0.791687)" id="Shape" fill="#000000" fill-rule="evenodd" stroke="none" />
    </g>
  </g>
</svg>