<?xml version="1.0" encoding="utf-8"?>
<svg width="24px" height="24px" viewBox="0 0 24 24" version="1.1" xmlns:xlink="http://www.w3.org/1999/xlink" xmlns="http://www.w3.org/2000/svg">
  <desc>Created with Lunacy</desc>
  <defs>
    <path d="M0 0L24 0L24 24L0 24L0 0Z" id="path_1" />
    <clipPath id="mask_1">
      <use xlink:href="#path_1" />
    </clipPath>
  </defs>
  <g id="comments-svgrepo-com">
    <path d="M0 0L24 0L24 24L0 24L0 0Z" id="Background" fill="none" stroke="none" />
    <g clip-path="url(#mask_1)">
      <path d="M6.83916 15.631C7.39058 15.7183 8.64458 15.8125 9.22581 15.8125C14.3213 15.8125 17.7419 12.1392 17.7419 7.82031C17.7419 3.50143 13.4675 0 9.22581 0C4.12394 0 0 3.50143 0 7.82031C0 10.3228 0.984318 12.4465 2.83871 13.9762L2.83871 17.875L6.83916 15.631ZM19.091 6.60259L19.0539 6C20.8648 7.45015 22.0001 9.49381 22.0001 11.7642C22.0001 14.3118 20.5746 16.5731 18.3637 18.031L18.3637 22L14.2874 19.5847C13.7223 19.6736 13.1412 19.7254 12.5455 19.7254C9.74481 19.7254 7.731 18.7302 6.00009 17.1008L8.18191 17.1008C14.5208 17.1008 19.091 13.234 19.091 7.65242C19.091 7.44904 19.0919 7.33135 19.0926 7.23131C19.0938 7.0704 19.0946 6.95519 19.091 6.60259ZM4.61289 6.875C5.20122 6.875 5.6774 7.337 5.6774 7.90625C5.6774 8.47619 5.20122 8.9375 4.61289 8.9375C4.02456 8.9375 3.54837 8.47619 3.54837 7.90625C3.54837 7.337 4.02456 6.875 4.61289 6.875ZM8.87094 6.875C9.45927 6.875 9.93546 7.337 9.93546 7.90625C9.93546 8.47619 9.45927 8.9375 8.87094 8.9375C8.28261 8.9375 7.80643 8.47619 7.80643 7.90625C7.80643 7.337 8.28261 6.875 8.87094 6.875ZM14.1936 7.90625C14.1936 7.337 13.7174 6.875 13.1291 6.875C12.5407 6.875 12.0645 7.337 12.0645 7.90625C12.0645 8.47619 12.5407 8.9375 13.1291 8.9375C13.7174 8.9375 14.1936 8.47619 14.1936 7.90625Z" transform="translate(0.7196045 1.0415955)" id="comments" fill="#000000" fill-rule="evenodd" stroke="none" />
    </g>
  </g>
</svg>