<?xml version="1.0" encoding="utf-8"?>
<svg width="40px" height="50px" viewBox="0 0 40 50" version="1.1" xmlns:xlink="http://www.w3.org/1999/xlink" xmlns="http://www.w3.org/2000/svg">
  <desc>Created with Lunacy</desc>
  <defs>
    <path d="M0 0L40 0L40 50L0 50L0 0Z" id="path_1" />
    <clipPath id="mask_1">
      <use xlink:href="#path_1" />
    </clipPath>
  </defs>
  <g id="notes">
    <path d="M0 0L40 0L40 50L0 50L0 0Z" id="Background" fill="none" stroke="none" />
    <g clip-path="url(#mask_1)">
      <g id="Group" transform="translate(7 10)">
        <path d="M0 0.5C0 0.22386 0.63427 0 1.41667 0L15.5833 0C16.3658 0 17 0.22386 17 0.5C17 0.77614 16.3658 1 15.5833 1L1.41667 1C0.634256 1 0 0.77614 0 0.5L0 0.5Z" transform="translate(4.592285 7.1662903)" id="Shape" fill="#FFFFFF" stroke="none" />
        <path d="M0 0.5C0 0.223855 0.63427 0 1.41667 0L15.5833 0C16.3658 0 17 0.223855 17 0.5C17 0.77615 16.3658 1 15.5833 1L1.41667 1C0.634256 1 0 0.77615 0 0.5L0 0.5Z" transform="translate(4.592285 12.3324585)" id="Shape" fill="#FFFFFF" stroke="none" />
        <path d="M1.41667 0C0.63427 0 0 0.22385 0 0.5C0 0.77615 0.634256 1 1.41667 1L15.5833 1C16.3658 1 17 0.77615 17 0.5C17 0.22385 16.3658 0 15.5833 0L1.41667 0L1.41667 0Z" transform="translate(4.592285 17.498749)" id="Shape" fill="#FFFFFF" stroke="none" />
        <path d="M0 0.5C0 0.22385 0.52234 0 1.16667 0L5.83333 0C6.47768 0 7 0.22385 7 0.5C7 0.77615 6.47768 1 5.83333 1L1.16667 1C0.52234 1 0 0.77615 0 0.5L0 0.5Z" transform="translate(4.592285 22.664917)" id="Shape" fill="#FFFFFF" stroke="none" />
        <path d="M2.39771 0.51594C2.31245 0.208272 2.14843 0 1.96008 0C1.76852 0 1.60213 0.215439 1.51817 0.531773C0.629455 0.663915 0 1.19883 0 2.00707C0 2.84162 0.669084 3.20524 1.46008 3.49846L1.46008 4.77179C0.930584 4.58981 0.594045 4.06876 0.502732 3.63907C0.480874 3.53707 0.378871 3.44107 0.233151 3.44107C0.0291439 3.44107 0 3.60907 0 3.73507L0 4.89307C0 4.92307 0 5.14507 0.225865 5.14507C0.408015 5.14507 0.386157 4.94707 0.619308 4.94707C0.853482 4.94707 0.988929 5.11446 1.46636 5.15889C1.50441 5.63567 1.71097 6 1.96008 6C2.2156 6 2.42634 5.6167 2.45641 5.12191C3.32167 4.96137 4 4.40514 4 3.61507C4 3.06899 3.71478 2.51116 2.46008 2.10425L2.46008 1C2.46008 0.973734 2.45958 0.947705 2.45858 0.921948C2.90141 1.09407 3.23295 1.47683 3.3005 1.85107C3.32236 1.97107 3.38793 2.08507 3.56279 2.08507C3.77409 2.08507 3.80323 1.93507 3.80323 1.79707L3.80323 0.771068L3.80331 0.76273C3.80409 0.703152 3.80649 0.519068 3.59194 0.519068C3.4025 0.519068 3.41708 0.735068 3.22764 0.735068C3.15895 0.735068 2.79058 0.567603 2.39771 0.51594ZM2.46008 3.92201L2.46008 4.61941C2.56831 4.53558 2.63796 4.42421 2.64481 4.26907C2.65038 4.12449 2.57494 4.01238 2.46008 3.92201ZM1.46008 1.63135L1.46008 1.08121C1.39468 1.15449 1.35519 1.24137 1.35519 1.34107C1.35519 1.4499 1.38215 1.54311 1.46008 1.63135Z" transform="translate(15.539917 19.664917)" id="Shape-Copy-Union" fill="#FFFFFF" fill-rule="evenodd" stroke="none" />
        <path d="M3.9 0C1.74609 0 0 1.83157 0 4.09091L0 25.9091C0 28.1685 1.74609 30 3.9 30L22.1 30C24.254 30 26 28.1685 26 25.9091L26 4.09091C26 1.83157 24.254 0 22.1 0L3.9 0ZM22.625 2L3.375 2C2.6156 2 2 2.64671 2 3.44444L2 26.5556C2 27.3533 2.61562 28 3.375 28L22.625 28C23.3844 28 24 27.3533 24 26.5556L24 3.44444C24 2.64669 23.3844 2 22.625 2Z" id="Shape" fill="#FFFFFF" fill-rule="evenodd" stroke="none" />
      </g>
    </g>
  </g>
</svg>