<?xml version="1.0" encoding="utf-8"?>
<svg width="24px" height="24px" viewBox="0 0 24 24" version="1.1" xmlns:xlink="http://www.w3.org/1999/xlink" xmlns="http://www.w3.org/2000/svg">
  <desc>Created with Lunacy</desc>
  <defs>
    <path d="M0 0L24 0L24 24L0 24L0 0Z" id="path_1" />
    <clipPath id="mask_1">
      <use xlink:href="#path_1" />
    </clipPath>
  </defs>
  <g id="fork-and-spoon-meal-svgrepo-com">
    <path d="M0 0L24 0L24 24L0 24L0 0Z" id="Background" fill="none" stroke="none" />
    <g clip-path="url(#mask_1)">
      <g id="Group" transform="translate(0.76828 1)">
        <path d="M4.69158 0C2.10023 0 0 2.43177 0 5.17639C0 6.8468 0.837517 8.31981 1.86117 9.23693C2.75953 10.0426 3.31145 10.663 3.42172 12.0091L3.42172 20.8848C3.42172 21.5005 3.9543 22 4.61072 22L4.7718 22C5.42821 22 5.9608 21.5005 5.9608 20.8848L5.9608 12.0091C6.07102 10.6629 6.62294 10.0426 7.52134 9.23689C8.545 8.31977 9.38252 6.84676 9.38252 5.17635C9.38243 2.43177 7.28146 0 4.69158 0L4.69158 0Z" transform="translate(12.617493 0)" id="Shape" fill="#000000" stroke="none" />
        <path d="M6.91159 1.0279L6.91159 5.72759C6.91159 6.02769 6.65247 6.27141 6.33246 6.27141L6.17711 6.27141C5.85784 6.27141 5.59798 6.02769 5.59798 5.72759L5.59798 1.00641C5.59798 0.232289 5.04249 0 4.50918 0C3.97659 0 3.42111 0.232289 3.42111 1.00641L3.42111 5.72759C3.42111 6.02769 3.16125 6.27141 2.84129 6.27141L2.68667 6.27141C2.36671 6.27141 2.10754 6.02769 2.10754 5.72759L2.10754 1.0279C2.10754 -0.35853 0.000117092 -0.311523 0.000117092 1.04332C0.000117092 2.66539 0.000117092 5.53088 0.000117092 5.53088C-0.00991615 8.02307 0.625059 8.66962 1.67304 9.4464C2.51775 10.0722 3.24 10.4293 3.24 11.9829L3.24 20.8579C3.24 21.4736 3.77185 21.9731 4.429 21.9731L4.59008 21.9731C5.2465 21.9731 5.77908 21.4736 5.77908 20.8579L5.77908 11.9829C5.77908 10.4293 6.50065 10.0721 7.34536 9.4464C8.39407 8.66962 9.029 8.02307 9.01897 5.53088C9.01897 5.53088 9.01897 2.66539 9.01897 1.04332C9.01902 -0.311523 6.91159 -0.358531 6.91159 1.0279L6.91159 1.0279Z" transform="translate(0 0.026855469)" id="Shape" fill="#000000" stroke="none" />
      </g>
    </g>
  </g>
</svg>