<?xml version="1.0" encoding="utf-8"?>
<svg width="96px" height="16px" viewBox="0 0 96 16" version="1.1" xmlns:xlink="http://www.w3.org/1999/xlink" xmlns="http://www.w3.org/2000/svg">
  <desc>Created with Lunacy</desc>
  <g id="google-5-stars">
    <g id="Group">
      <path d="M3.20088 15.9853L8 13.3327L12.7991 15.9825C12.8444 16.0073 12.8991 16.0032 12.9405 15.9717C12.9818 15.9403 13.0027 15.8869 12.9943 15.834L12.0789 10.2206L15.9599 6.24601C15.9962 6.20847 16.0091 6.15269 15.9935 6.10185C15.9778 6.05101 15.9362 6.01378 15.8859 6.00563L10.52 5.18554L8.12116 0.0797621C8.09866 0.0309823 8.0516 0 8 0C7.9484 0 7.90134 0.0309823 7.87884 0.0797621L5.47996 5.18696L0.114094 6.00705C0.063813 6.0152 0.0222007 6.05242 0.00654007 6.10326C-0.00912054 6.15411 0.00384599 6.20988 0.040054 6.24742L3.92108 10.222L3.00434 15.8354C2.99597 15.8883 3.01682 15.9417 3.05818 15.9731C3.09954 16.0046 3.15428 16.0088 3.19953 15.9839L3.20088 15.9853Z" id="1" fill="#F3B706" stroke="none" />
      <path d="M3.20088 15.9853L8 13.3327L12.7991 15.9825C12.8444 16.0073 12.8991 16.0032 12.9405 15.9717C12.9818 15.9403 13.0027 15.8869 12.9943 15.834L12.0789 10.2206L15.9599 6.24601C15.9962 6.20847 16.0091 6.15269 15.9935 6.10185C15.9778 6.05101 15.9362 6.01378 15.8859 6.00563L10.52 5.18554L8.12116 0.0797621C8.09866 0.0309823 8.0516 0 8 0C7.9484 0 7.90134 0.0309823 7.87884 0.0797621L5.47996 5.18696L0.114094 6.00705C0.063813 6.0152 0.0222007 6.05242 0.00654007 6.10326C-0.00912054 6.15411 0.00384599 6.20988 0.040054 6.24742L3.92108 10.222L3.00434 15.8354C2.99597 15.8883 3.01682 15.9417 3.05818 15.9731C3.09954 16.0046 3.15428 16.0088 3.19953 15.9839L3.20088 15.9853Z" transform="translate(20 0)" id="2" fill="#F3B706" stroke="none" />
      <path d="M3.20088 15.9853L8 13.3327L12.7991 15.9825C12.8444 16.0073 12.8991 16.0032 12.9405 15.9717C12.9818 15.9403 13.0027 15.8869 12.9943 15.834L12.0789 10.2206L15.9599 6.24601C15.9962 6.20847 16.0091 6.15269 15.9935 6.10185C15.9778 6.05101 15.9362 6.01378 15.8859 6.00563L10.52 5.18554L8.12116 0.0797621C8.09866 0.0309823 8.0516 0 8 0C7.9484 0 7.90134 0.0309823 7.87884 0.0797621L5.47996 5.18696L0.114094 6.00705C0.063813 6.0152 0.0222007 6.05242 0.00654007 6.10326C-0.00912054 6.15411 0.00384599 6.20988 0.040054 6.24742L3.92108 10.222L3.00434 15.8354C2.99597 15.8883 3.01682 15.9417 3.05818 15.9731C3.09954 16.0046 3.15428 16.0088 3.19953 15.9839L3.20088 15.9853Z" transform="translate(40 0)" id="3" fill="#F3B706" stroke="none" />
      <path d="M3.20088 15.9853L8 13.3327L12.7991 15.9825C12.8444 16.0073 12.8991 16.0032 12.9405 15.9717C12.9818 15.9403 13.0027 15.8869 12.9943 15.834L12.0789 10.2206L15.9599 6.24601C15.9962 6.20847 16.0091 6.15269 15.9935 6.10185C15.9778 6.05101 15.9362 6.01378 15.8859 6.00563L10.52 5.18554L8.12116 0.0797621C8.09866 0.0309823 8.0516 0 8 0C7.9484 0 7.90134 0.0309823 7.87884 0.0797621L5.47996 5.18696L0.114094 6.00705C0.063813 6.0152 0.0222007 6.05242 0.00654007 6.10326C-0.00912054 6.15411 0.00384599 6.20988 0.040054 6.24742L3.92108 10.222L3.00434 15.8354C2.99597 15.8883 3.01682 15.9417 3.05818 15.9731C3.09954 16.0046 3.15428 16.0088 3.19953 15.9839L3.20088 15.9853Z" transform="translate(60 0)" id="4" fill="#F3B706" stroke="none" />
      <path d="M3.20088 15.9853L8 13.3327L12.7991 15.9825C12.8444 16.0073 12.8991 16.0032 12.9405 15.9717C12.9818 15.9403 13.0027 15.8869 12.9943 15.834L12.0789 10.2206L15.9599 6.24601C15.9962 6.20847 16.0091 6.15269 15.9935 6.10185C15.9778 6.05101 15.9362 6.01378 15.8859 6.00563L10.52 5.18554L8.12116 0.0797621C8.09866 0.0309823 8.0516 0 8 0C7.9484 0 7.90134 0.0309823 7.87884 0.0797621L5.47996 5.18696L0.114094 6.00705C0.063813 6.0152 0.0222007 6.05242 0.00654007 6.10326C-0.00912054 6.15411 0.00384599 6.20988 0.040054 6.24742L3.92108 10.222L3.00434 15.8354C2.99597 15.8883 3.01682 15.9417 3.05818 15.9731C3.09954 16.0046 3.15428 16.0088 3.19953 15.9839L3.20088 15.9853Z" transform="translate(80 0)" id="5" fill="#F3B706" stroke="none" />
    </g>
  </g>
</svg>