<?xml version="1.0" encoding="utf-8"?>
<svg width="26px" height="26px" viewBox="0 0 26 26" version="1.1" xmlns:xlink="http://www.w3.org/1999/xlink" xmlns="http://www.w3.org/2000/svg">
  <desc>Created with Lunacy</desc>
  <g id="Group">
    <path d="M0 13C0 5.8203 5.8203 0 13 0C20.1797 0 26 5.8203 26 13C26 20.1797 20.1797 26 13 26C5.8203 26 0 20.1797 0 13Z" id="Ellipse" fill="#00EB5B" stroke="none" />
    <path d="M9.0009 0L9.0051 0L9.0039 0.000623996L9.0087 0.000623996C11.1483 0.000623996 13.1331 0.685466 14.7374 1.83268L18 1.83268L16.5278 3.49525L16.5314 3.49837C17.4328 4.35208 17.9982 5.58218 17.9982 6.94875C17.9982 9.52796 15.9846 11.6186 13.5005 11.6186C12.3175 11.6186 11.2414 11.1444 10.4413 10.3723L8.9997 12L7.55826 10.3713C6.75552 11.1449 5.68053 11.618 4.49895 11.618C2.0154 11.618 0.00180055 9.52734 0.00180055 6.94875C0.00180055 5.58218 0.56717 4.3527 1.47224 3.49525L0 1.83268L3.26918 1.83268C4.902 0.675857 6.87534 0 9.0009 0ZM9.00032 1.52606C10.2199 1.52669 11.3806 1.78529 12.4357 2.25203L12.3781 2.2296C10.4738 2.90883 9.10895 4.7035 9.00032 6.84402L8.99972 6.85649C8.89168 4.7035 7.52627 2.90821 5.65671 2.24019L5.6219 2.2296C6.6194 1.78592 7.78075 1.52793 8.99972 1.52731L9.00032 1.52606ZM7.54605 6.94626C7.54605 5.20082 6.18304 3.78564 4.50194 3.78564C3.3808 3.78564 2.40131 4.4144 1.86535 5.36595L1.87315 5.351C1.60907 5.81898 1.45782 6.36424 1.45782 6.94626C1.45782 8.69171 2.82083 10.1069 4.50194 10.1069C6.18304 10.1069 7.54605 8.69171 7.54605 6.94626ZM13.4957 3.78752L13.4969 3.78752C15.1774 3.78752 16.5398 5.20207 16.5398 6.94689C16.5398 8.69171 15.1774 10.1063 13.4969 10.1063C11.8164 10.1063 10.4539 8.69171 10.4539 6.94689C10.4539 6.36549 10.6052 5.82086 10.8687 5.35287L10.8609 5.36783C11.3962 4.41628 12.3751 3.78752 13.4957 3.7869L13.4957 3.78752ZM2.90608 6.94748C2.90608 6.0327 3.6203 5.29053 4.50196 5.29053C5.08954 5.29053 5.60329 5.6208 5.88418 6.11932L5.87997 6.11122C6.01862 6.35674 6.09784 6.64214 6.09784 6.94748C6.09784 7.86227 5.38363 8.60444 4.50196 8.60444C3.6209 8.60444 2.90608 7.86227 2.90608 6.94748ZM13.4956 5.29053C12.614 5.29053 11.8998 6.0327 11.8998 6.94748C11.8998 7.86227 12.6146 8.60444 13.4956 8.60444C14.3773 8.60444 15.0915 7.86227 15.0915 6.94748C15.0915 6.64214 15.0123 6.35674 14.8737 6.11122L14.8779 6.11932C14.597 5.6208 14.0832 5.29053 13.4956 5.29053Z" transform="translate(4.003998 7.52182)" id="Shape" fill="#000000" fill-rule="evenodd" stroke="none" />
  </g>
</svg>