<?xml version="1.0" encoding="utf-8"?>
<svg width="24px" height="24px" viewBox="0 0 24 24" version="1.1" xmlns:xlink="http://www.w3.org/1999/xlink" xmlns="http://www.w3.org/2000/svg">
  <desc>Created with Lunacy</desc>
  <defs>
    <path d="M0 0L24 0L24 24L0 24L0 0Z" id="path_1" />
    <clipPath id="mask_1">
      <use xlink:href="#path_1" />
    </clipPath>
  </defs>
  <g id="location-pin">
    <path d="M0 0L24 0L24 24L0 24L0 0Z" id="Background" fill="none" stroke="none" />
    <g clip-path="url(#mask_1)">
      <path d="M0 8.46154C0 3.80769 4.5 0 10 0C15.5 0 20 3.80769 20 8.46154C20 15.5692 11 21.5769 10.6 21.8308C10.4 21.9154 10.2 22 10 22C9.8 22 9.6 21.9154 9.4 21.8308C9 21.5769 0 15.5692 0 8.46154ZM6 8.46152C6 10.3231 7.8 11.8461 10 11.8461C12.2 11.8461 14 10.3231 14 8.46152C14 6.59998 12.2 5.0769 10 5.0769C7.8 5.0769 6 6.59998 6 8.46152Z" transform="translate(2 1)" id="Shape" fill="#000000" fill-rule="evenodd" stroke="none" />
    </g>
  </g>
</svg>