<?xml version="1.0" encoding="utf-8"?>
<svg width="24px" height="24px" viewBox="0 0 24 24" version="1.1" xmlns:xlink="http://www.w3.org/1999/xlink" xmlns="http://www.w3.org/2000/svg">
  <desc>Created with Lunacy</desc>
  <g id="pax">
    <path d="M0 0L24 0L24 24L0 24L0 0Z" id="Rectangle" fill="none" stroke="none" />
    <g id="Group" transform="translate(1.0063477 1)">
      <path d="M0 6.00944C0 2.69052 2.61258 0 5.83537 0C9.05817 0 11.6707 2.69052 11.6707 6.00944C11.6707 9.32839 9.05817 12.0189 5.83537 12.0189C2.61258 12.0189 0 9.32839 0 6.00944L0 6.00944Z" transform="translate(2.3579712 0)" id="Shape" fill="#000000" fill-rule="evenodd" stroke="none" />
      <path d="M0.0314054 8.09699C-0.0275976 8.21211 -0.00256981 8.35567 0.0989649 8.43312C0.853153 9.00803 1.78642 9.34803 2.79672 9.34803C5.30333 9.34803 7.33533 7.2554 7.33533 4.67401C7.33533 2.09262 5.30333 0 2.79672 0C1.78642 0 0.853153 0.340001 0.0989649 0.914945C-0.00256981 0.9924 -0.0275976 1.13589 0.0314054 1.25102C0.555162 2.27316 0.851598 3.43794 0.851598 4.67401C0.851598 5.91009 0.555162 7.07485 0.0314054 8.09699L0.0314054 8.09699Z" transform="translate(13.473846 1.3354187)" id="Shape" fill="#000000" stroke="none" />
      <path d="M2.90122 1.16317C4.25819 0.273453 6.03863 0 8.25132 0C10.4659 0 12.2476 0.273951 13.6051 1.16567C15.0838 2.13689 15.9825 3.79124 16.4536 6.12706C16.6743 7.22187 16.13 8.31668 15.3798 8.31668L1.12497 8.31668C0.373876 8.31668 -0.17166 7.22021 0.0497957 6.12341C0.52148 3.78725 1.42158 2.1334 2.90122 1.16317L2.90122 1.16317Z" transform="translate(0 13.683319)" id="Shape" fill="#000000" fill-rule="evenodd" stroke="none" />
      <path d="M0.360776 0.0617809C-0.0950849 0.10453 -0.121842 1.02968 0.297022 1.30479L0.297022 1.30479C1.44482 2.05878 2.30909 3.16873 2.92891 4.58539C3.43751 5.7479 4.22734 6.65458 5.14974 6.65458L7.11039 6.65458C7.8891 6.65458 8.45727 5.48576 8.18331 4.34387C8.16757 4.27817 8.15116 4.21297 8.1342 4.14827C7.75718 2.71015 7.11094 1.65143 6.15407 0.976616C5.25567 0.343051 4.13099 0.0815745 2.80602 0.0025666L2.78422 0.00123571L2.76253 0.00123571C1.98206 0.00123571 1.1669 -0.0139006 0.360776 0.0617809L0.360776 0.0617809Z" transform="translate(13.746826 12.018829)" id="Shape" fill="#000000" stroke="none" />
    </g>
  </g>
</svg>