<?xml version="1.0" encoding="utf-8"?>
<svg width="24px" height="24px" viewBox="0 0 24 24" version="1.1" xmlns:xlink="http://www.w3.org/1999/xlink" xmlns="http://www.w3.org/2000/svg">
  <desc>Created with Lunacy</desc>
  <defs>
    <path d="M0 0L24 0L24 24L0 24L0 0Z" id="path_1" />
    <clipPath id="mask_1">
      <use xlink:href="#path_1" />
    </clipPath>
  </defs>
  <g id="paypal-svgrepo-com">
    <path d="M0 0L24 0L24 24L0 24L0 0Z" id="Background" fill="none" stroke="none" />
    <g clip-path="url(#mask_1)">
      <path d="M0.62893 19.5626L5.1478 19.5626L6.24528 13.0608L6.24607 13.055C6.32547 12.5915 6.75629 12.2374 7.27515 12.2366L9.42374 12.2366C13.6407 12.2366 16.9426 10.6381 17.9072 6.01713C17.9354 5.88499 17.9584 5.75628 17.9806 5.62969C18.0757 5.28311 18.1266 4.91959 18.1266 4.54474C18.1266 3.45316 17.6959 2.45466 16.9902 1.69506C16.9927 1.69709 16.9952 1.69913 16.9976 1.70116L16.9898 1.69456L16.9902 1.69506C15.7089 0.639866 14.0255 0 12.1824 0C11.9096 0 11.6407 0.0146652 11.408 0.0388627L4.08883 0.0388627C3.56839 0.0388627 3.13679 0.393027 3.05503 0.863046L0.00707552 18.8858L0.00786162 18.8822C0.00235851 18.913 0 18.9438 0 18.976C0 19.3001 0.281446 19.5626 0.62893 19.5626ZM19.0254 6.36712L19.0259 6.36763L19.0259 6.36773C19.6381 7.13779 20 8.09095 20 9.12249C20 9.59911 19.9229 10.0589 19.7885 10.4592C18.9442 14.5017 16.055 15.9 12.3663 15.9L11.7948 15.9C11.3396 15.9 10.9623 16.2102 10.8915 16.6208C10.8365 16.8386 10.1502 21.0409 10.0912 21.2785L10.0904 21.2836C10.0204 21.6898 9.64229 22 9.1871 22L5.37814 22C5.07468 22 4.82861 21.7705 4.82861 21.4874C4.82861 21.4588 4.83097 21.4317 4.8349 21.4075L5.07075 20.0202L5.56682 20.0202L6.73113 13.1327L6.73191 13.1298C6.7728 12.8834 7.00078 12.6942 7.27673 12.6942L9.42531 12.6942C14.4615 12.6942 17.478 10.4776 18.3907 6.10512C18.4057 6.03253 18.4182 5.94234 18.4308 5.87268L18.441 5.87928C18.6537 6.01786 18.8485 6.18038 19.0231 6.36468L19.0165 6.3559C19.0195 6.35963 19.0225 6.36337 19.0254 6.36712Z" transform="translate(2.1875 1.4375305)" id="Shape" fill="#000000" fill-rule="evenodd" stroke="none" />
    </g>
  </g>
</svg>