<?xml version="1.0" encoding="utf-8"?>
<svg width="24px" height="24px" viewBox="0 0 24 24" version="1.1" xmlns:xlink="http://www.w3.org/1999/xlink" xmlns="http://www.w3.org/2000/svg">
  <desc>Created with Lunacy</desc>
  <defs>
    <path d="M0 0L24 0L24 24L0 24L0 0Z" id="path_1" />
    <clipPath id="mask_1">
      <use xlink:href="#path_1" />
    </clipPath>
  </defs>
  <g id="phone-svgrepo-com">
    <path d="M0 0L24 0L24 24L0 24L0 0Z" id="Background" fill="none" stroke="none" />
    <g clip-path="url(#mask_1)">
      <path d="M15.3464 12.1893L14.7897 12.6954C14.7897 12.6954 13.4665 13.8985 9.85489 10.6145C6.24325 7.33066 7.5664 6.12758 7.5664 6.12758L7.91693 5.80883C8.78056 5.02364 8.86195 3.76301 8.10846 2.84271L6.56731 0.960145C5.63478 -0.178917 3.83283 -0.329386 2.76399 0.642454L0.845591 2.38675C0.315612 2.86864 -0.0395413 3.4933 0.00353002 4.18627C0.113713 5.95909 0.990864 9.77349 5.88543 14.2238C11.0759 18.9432 15.9461 19.1308 17.9377 18.961C18.5676 18.9073 19.1154 18.614 19.5569 18.2125L21.2932 16.6339C22.4652 15.5683 22.1347 13.7414 20.6351 12.996L18.3001 11.8352C17.3154 11.3458 16.116 11.4895 15.3464 12.1893L15.3464 12.1893Z" transform="translate(0.88235474 3)" id="Shape" fill="#000000" stroke="none" />
    </g>
  </g>
</svg>