<?xml version="1.0" encoding="utf-8"?>
<svg width="24px" height="24px" viewBox="0 0 24 24" version="1.1" xmlns:xlink="http://www.w3.org/1999/xlink" xmlns="http://www.w3.org/2000/svg">
  <desc>Created with Lunacy</desc>
  <defs>
    <path d="M0 0L24 0L24 24L0 24L0 0Z" id="path_1" />
    <clipPath id="mask_1">
      <use xlink:href="#path_1" />
    </clipPath>
  </defs>
  <g id="plane-svgrepo-com-(1)">
    <path d="M0 0L24 0L24 24L0 24L0 0Z" id="Background" fill="none" stroke="none" />
    <g clip-path="url(#mask_1)">
      <g id="Group" transform="translate(1.0004272 1.000061)">
        <path d="M2.97701 18.9334C2.9788 18.2119 3.3888 17.5065 4.05662 16.7169L0.194745 14.2748C-0.0487476 14.1692 -0.0433764 14.0206 0.0980644 13.8451L0.916272 13.1469C1.06487 13.0556 1.22243 13.0162 1.39252 13.0627L6.15853 13.8684L10.1296 9.56785L0.85898 3.29607C0.624439 3.15821 0.604745 3.00245 0.846447 2.82162L2.18387 1.75454L14.269 5.15093L17.839 1.33379C19.0368 0.297149 20.2006 -0.166566 21.094 0.0536538C21.5863 0.175401 21.76 0.322214 21.9122 0.784138C22.2076 1.69008 21.7492 2.90756 20.6661 4.16084L16.8489 7.7309L20.2453 19.8161L19.1782 21.1535C18.9974 21.3935 18.8417 21.3738 18.7038 21.141L12.4303 11.8721L8.12975 15.8414L8.93543 20.6075C8.98198 20.7758 8.94438 20.9333 8.85128 21.0837L8.15303 21.9019C7.97936 22.0434 7.82897 22.0487 7.72333 21.8053L5.28124 17.9434C4.4881 18.613 3.78269 19.023 3.05758 19.023C2.99133 19.0212 2.97701 18.9979 2.97701 18.9334L2.97701 18.9334L2.97701 18.9334Z" id="Shape" fill="#000000" fill-rule="evenodd" stroke="none" />
      </g>
    </g>
  </g>
</svg>