<?xml version="1.0" encoding="utf-8"?>
<svg width="24px" height="24px" viewBox="0 0 24 24" version="1.1" xmlns:xlink="http://www.w3.org/1999/xlink" xmlns="http://www.w3.org/2000/svg">
  <defs>
    <path d="M0 0L24 0L24 24L0 24L0 0Z" id="path_1" />
    <clipPath id="mask_1">
      <use xlink:href="#path_1" />
    </clipPath>
  </defs>
  <g id="plane">
    <path d="M0 0L24 0L24 24L0 24L0 0Z" id="Background" fill="none" stroke="none" />
    <g clip-path="url(#mask_1)">
      <path class="main-color" d="M9.625 0L8.25 2.75L8.25 6.875L0 12.375L0 15.125L1.375 15.125L8.25 13.75L9.625 17.875L6.875 19.25L6.875 22L15.125 22L15.125 19.25L12.375 17.875L13.75 13.75L20.625 15.125L22 15.125L22 12.375L13.75 6.875L13.75 2.75L12.375 0L9.625 0L9.625 0Z" transform="translate(0.9999695 1.0000305)" id="Shape" fill="#000000" stroke="none" />
    </g>
  </g>
</svg>