<?xml version="1.0" encoding="utf-8"?>
<svg width="24px" height="24px" viewBox="0 0 24 24" version="1.1" xmlns:xlink="http://www.w3.org/1999/xlink" xmlns="http://www.w3.org/2000/svg">
  <desc>Created with Lunacy</desc>
  <defs>
    <path d="M0 0L24 0L24 24L0 24L0 0Z" id="path_1" />
    <clipPath id="mask_1">
      <use xlink:href="#path_1" />
    </clipPath>
  </defs>
  <g id="suv">
    <path d="M0 0L24 0L24 24L0 24L0 0Z" id="Background" fill="none" stroke="none" />
    <g clip-path="url(#mask_1)">
      <path d="M8.68255 0.0158341C8.71759 0.00651648 8.75302 0.00122981 8.78854 1.48967e-05C8.83029 -0.000317245 8.87198 0.00497495 8.91315 0.0158341L12.4452 0.0158341C13.155 0.0158341 13.8233 0.558915 14.2355 1.4712L16.8824 7.31526L20.8785 8.84295C21.5363 9.09519 22 10.0236 22 11.0915L22 15.6949C22 16.6946 21.593 17.5825 20.9902 17.8938L20.5219 18.1356C20.4584 20.272 19.3353 22 17.9667 22C16.6834 22 15.6187 20.4789 15.4372 18.5288L8.02943 18.5288C7.848 20.4789 6.78329 22 5.5 22C4.16573 22 3.06994 20.3555 2.95625 18.2938L1.18164 17.7401C0.494507 17.5249 0 16.5762 0 15.4712L0 8.42713C0 8.0175 0.0687353 7.6168 0.199089 7.26329L0.199089 7.26103L2.24154 1.73787L2.24297 1.73561C2.63682 0.672794 3.3605 0.0158341 4.14219 0.0158341L8.68255 0.0158341ZM4.1422 2.32993L8.06668 2.32993L8.06668 6.95817L2.00952 6.95817L3.50913 2.90394C3.64182 2.54588 3.87962 2.32993 4.1422 2.32993ZM12.4452 2.32993L9.53336 2.32993L9.53336 6.95817L14.9173 6.95817L13.041 2.81354C12.9032 2.5086 12.6828 2.32993 12.4452 2.32993ZM5.49999 16.2146C6.11619 16.2146 6.59999 16.9779 6.59999 17.9502C6.59999 18.9224 6.11619 19.6858 5.49999 19.6858C4.88379 19.6858 4.39999 18.9224 4.39999 17.9502C4.39999 16.9779 4.88379 16.2146 5.49999 16.2146ZM19.0667 17.9502C19.0667 16.9779 18.5829 16.2146 17.9667 16.2146C17.3505 16.2146 16.8667 16.9779 16.8667 17.9502C16.8667 18.9224 17.3505 19.6858 17.9667 19.6858C18.5829 19.6858 19.0667 18.9224 19.0667 17.9502Z" transform="translate(1 0.99993896)" id="Shape" fill="#000000" fill-rule="evenodd" stroke="none" />
    </g>
  </g>
</svg>