<?xml version="1.0" encoding="utf-8"?>
<svg width="24px" height="24px" viewBox="0 0 24 24" version="1.1" xmlns:xlink="http://www.w3.org/1999/xlink" xmlns="http://www.w3.org/2000/svg">
  <desc>Created with Lunacy</desc>
  <defs>
    <path d="M0 0L24 0L24 24L0 24L0 0Z" id="path_1" />
    <clipPath id="mask_1">
      <use xlink:href="#path_1" />
    </clipPath>
  </defs>
  <g id="time-add-svgrepo-com">
    <path d="M0 0L24 0L24 24L0 24L0 0Z" id="Background" fill="none" stroke="none" />
    <g clip-path="url(#mask_1)">
      <path d="M3.09932 15.6318C5.20635 19.229 9.47641 20.9499 13.4889 19.819L13.4926 19.819C13.8108 19.7208 14.1572 19.8026 14.3978 20.0329C14.6383 20.2632 14.7352 20.6058 14.6508 20.928C14.5665 21.2501 14.3142 21.5013 13.9917 21.5842C9.17421 22.946 4.04483 20.8829 1.51194 16.5647C-1.02096 12.2464 -0.318332 6.76253 3.22142 3.22236C6.76117 -0.317821 12.245 -1.02111 16.5635 1.51127C20.8821 4.04364 22.9458 9.17277 21.5845 13.9904C21.5045 14.3158 21.2534 14.5717 20.9296 14.6579C20.6058 14.7441 20.2608 14.6469 20.0296 14.4043C19.7984 14.1618 19.7178 13.8125 19.8194 13.4932C20.9532 9.48146 19.2353 5.21016 15.6397 3.10051C12.0441 0.990873 7.47747 1.57498 4.52859 4.52173C1.57971 7.46847 0.992285 12.0346 3.09932 15.6318ZM10.0687 6.40216L10.0687 10.6096L7.58515 13.0932C7.34666 13.3235 7.25102 13.6646 7.33498 13.9854C7.41894 14.3061 7.66944 14.5566 7.99021 14.6406C8.31097 14.7246 8.65208 14.6289 8.88243 14.3904L11.6348 11.6381C11.8069 11.4661 11.9036 11.2327 11.9036 10.9894L11.9036 6.40216C11.9036 5.89547 11.4928 5.48471 10.9862 5.48471C10.4795 5.48471 10.0687 5.89547 10.0687 6.40216ZM18.3258 16.4941L21.0782 16.4941C21.5849 16.4941 21.9956 16.9049 21.9956 17.4116C21.9956 17.9183 21.5849 18.329 21.0782 18.329L18.3258 18.329L18.3258 21.0814C18.3258 21.5881 17.915 21.9989 17.4083 21.9989C16.9017 21.9989 16.4909 21.5881 16.4909 21.0814L16.4909 18.329L13.7385 18.329C13.2318 18.329 12.8211 17.9183 12.8211 17.4116C12.8211 16.9049 13.2318 16.4941 13.7385 16.4941L16.4909 16.4941L16.4909 13.7418C16.4909 13.2351 16.9017 12.8243 17.4083 12.8243C17.915 12.8243 18.3258 13.2351 18.3258 13.7418L18.3258 16.4941Z" transform="translate(1.0254211 1.0218201)" id="Shape" fill="#000000" fill-rule="evenodd" stroke="none" />
    </g>
  </g>
</svg>